<svg width="38" height="21" viewBox="0 0 38 21" fill="none" xmlns="http://www.w3.org/2000/svg">
<mask id="mask0" style="mask-type:alpha" maskUnits="userSpaceOnUse" x="0" y="0" width="21" height="21">
<ellipse cx="10.548" cy="10.273" rx="10.1192" ry="9.92847" fill="#131213"/>
</mask>
<g mask="url(#mask0)">
<rect x="0.428711" y="0.344543" width="28.3339" height="19.8569" rx="1.16806" fill="#F89318"/>
</g>
<mask id="mask1" style="mask-type:alpha" maskUnits="userSpaceOnUse" x="17" y="0" width="21" height="21">
<ellipse cx="27.3095" cy="10.273" rx="10.1192" ry="9.92847" fill="#C4C4C4"/>
</mask>
<g mask="url(#mask1)">
<rect x="17.1903" y="0.344543" width="28.3339" height="19.8569" rx="1.16806" fill="white"/>
<mask id="mask2" style="mask-type:alpha" maskUnits="userSpaceOnUse" x="17" y="0" width="29" height="21">
<rect x="17.1903" y="0.344543" width="28.3339" height="19.8569" rx="1.16806" fill="white"/>
</mask>
<g mask="url(#mask2)">
<path fill-rule="evenodd" clip-rule="evenodd" d="M45.5242 0.344543H17.1903V1.66834H45.5242V0.344543ZM45.5242 2.99213H17.1903V4.31593H45.5242V2.99213ZM17.1903 5.63972H45.5242V6.96352H17.1903V5.63972ZM45.5242 8.28731H17.1903V9.6111H45.5242V8.28731ZM17.1903 10.9349H45.5242V12.2587H17.1903V10.9349ZM45.5242 13.5825H17.1903V14.9063H45.5242V13.5825ZM17.1903 16.2301H45.5242V17.5539H17.1903V16.2301ZM45.5242 18.8777H17.1903V20.2015H45.5242V18.8777Z" fill="#D02F44"/>
<rect x="17.1903" y="0.344543" width="12.1431" height="9.26657" fill="#46467F"/>
<g filter="url(#filter0_d)">
<path fill-rule="evenodd" clip-rule="evenodd" d="M19.8888 2.33023C19.8888 2.69579 19.5868 2.99213 19.2142 2.99213C18.8416 2.99213 18.5396 2.69579 18.5396 2.33023C18.5396 1.96468 18.8416 1.66833 19.2142 1.66833C19.5868 1.66833 19.8888 1.96468 19.8888 2.33023ZM22.5873 2.33024C22.5873 2.69579 22.2852 2.99213 21.9127 2.99213C21.5401 2.99213 21.238 2.69579 21.238 2.33024C21.238 1.96468 21.5401 1.66834 21.9127 1.66834C22.2852 1.66834 22.5873 1.96468 22.5873 2.33024ZM24.6111 2.99213C24.9837 2.99213 25.2857 2.69579 25.2857 2.33024C25.2857 1.96468 24.9837 1.66834 24.6111 1.66834C24.2385 1.66834 23.9365 1.96468 23.9365 2.33024C23.9365 2.69579 24.2385 2.99213 24.6111 2.99213ZM27.9842 2.33024C27.9842 2.69579 27.6821 2.99213 27.3096 2.99213C26.937 2.99213 26.635 2.69579 26.635 2.33024C26.635 1.96468 26.937 1.66834 27.3096 1.66834C27.6821 1.66834 27.9842 1.96468 27.9842 2.33024ZM20.5634 4.31593C20.936 4.31593 21.238 4.01959 21.238 3.65403C21.238 3.28847 20.936 2.99213 20.5634 2.99213C20.1908 2.99213 19.8888 3.28847 19.8888 3.65403C19.8888 4.01959 20.1908 4.31593 20.5634 4.31593ZM23.9365 3.65403C23.9365 4.01959 23.6344 4.31593 23.2619 4.31593C22.8893 4.31593 22.5873 4.01959 22.5873 3.65403C22.5873 3.28847 22.8893 2.99213 23.2619 2.99213C23.6344 2.99213 23.9365 3.28847 23.9365 3.65403ZM25.9604 4.31593C26.3329 4.31593 26.635 4.01959 26.635 3.65403C26.635 3.28847 26.3329 2.99213 25.9604 2.99213C25.5878 2.99213 25.2857 3.28847 25.2857 3.65403C25.2857 4.01959 25.5878 4.31593 25.9604 4.31593ZM27.9842 4.97782C27.9842 5.34338 27.6821 5.63972 27.3096 5.63972C26.937 5.63972 26.635 5.34338 26.635 4.97782C26.635 4.61227 26.937 4.31593 27.3096 4.31593C27.6821 4.31593 27.9842 4.61227 27.9842 4.97782ZM24.6111 5.63972C24.9837 5.63972 25.2857 5.34338 25.2857 4.97782C25.2857 4.61227 24.9837 4.31593 24.6111 4.31593C24.2385 4.31593 23.9365 4.61227 23.9365 4.97782C23.9365 5.34338 24.2385 5.63972 24.6111 5.63972ZM22.5873 4.97782C22.5873 5.34338 22.2852 5.63972 21.9127 5.63972C21.5401 5.63972 21.238 5.34338 21.238 4.97782C21.238 4.61227 21.5401 4.31593 21.9127 4.31593C22.2852 4.31593 22.5873 4.61227 22.5873 4.97782ZM19.2142 5.63972C19.5867 5.63972 19.8888 5.34338 19.8888 4.97782C19.8888 4.61227 19.5867 4.31593 19.2142 4.31593C18.8416 4.31593 18.5396 4.61227 18.5396 4.97782C18.5396 5.34338 18.8416 5.63972 19.2142 5.63972ZM21.238 6.30162C21.238 6.66717 20.936 6.96352 20.5634 6.96352C20.1908 6.96352 19.8888 6.66717 19.8888 6.30162C19.8888 5.93606 20.1908 5.63972 20.5634 5.63972C20.936 5.63972 21.238 5.93606 21.238 6.30162ZM23.2619 6.96352C23.6344 6.96352 23.9365 6.66717 23.9365 6.30162C23.9365 5.93606 23.6344 5.63972 23.2619 5.63972C22.8893 5.63972 22.5873 5.93606 22.5873 6.30162C22.5873 6.66717 22.8893 6.96352 23.2619 6.96352ZM26.635 6.30162C26.635 6.66717 26.3329 6.96352 25.9604 6.96352C25.5878 6.96352 25.2857 6.66717 25.2857 6.30162C25.2857 5.93606 25.5878 5.63972 25.9604 5.63972C26.3329 5.63972 26.635 5.93606 26.635 6.30162ZM27.3096 8.28731C27.6821 8.28731 27.9842 7.99097 27.9842 7.62541C27.9842 7.25986 27.6821 6.96351 27.3096 6.96351C26.937 6.96351 26.635 7.25986 26.635 7.62541C26.635 7.99097 26.937 8.28731 27.3096 8.28731ZM25.2857 7.62541C25.2857 7.99097 24.9837 8.28731 24.6111 8.28731C24.2385 8.28731 23.9365 7.99097 23.9365 7.62541C23.9365 7.25986 24.2385 6.96351 24.6111 6.96351C24.9837 6.96351 25.2857 7.25986 25.2857 7.62541ZM21.9127 8.28731C22.2852 8.28731 22.5873 7.99097 22.5873 7.62541C22.5873 7.25986 22.2852 6.96351 21.9127 6.96351C21.5401 6.96351 21.238 7.25986 21.238 7.62541C21.238 7.99097 21.5401 8.28731 21.9127 8.28731ZM19.8888 7.62541C19.8888 7.99097 19.5867 8.28731 19.2142 8.28731C18.8416 8.28731 18.5396 7.99097 18.5396 7.62541C18.5396 7.25986 18.8416 6.96351 19.2142 6.96351C19.5867 6.96351 19.8888 7.25986 19.8888 7.62541Z" fill="url(#paint0_linear)"/>
</g>
</g>
</g>
<path d="M7.96329 14.0168V6.36978H10.6419C11.5697 6.36978 12.2735 6.54835 12.7532 6.9055C13.2329 7.25914 13.4727 7.7791 13.4727 8.46537C13.4727 8.84002 13.3765 9.1709 13.1839 9.45802C12.9913 9.74163 12.7234 9.94997 12.3803 10.083C12.7725 10.1811 13.0806 10.3789 13.3047 10.6765C13.5323 10.9741 13.6461 11.3383 13.6461 11.7689C13.6461 12.5042 13.4115 13.061 12.9423 13.4391C12.4731 13.8173 11.8043 14.0098 10.936 14.0168H7.96329ZM9.53892 10.687V12.7511H10.8887C11.2599 12.7511 11.5487 12.6636 11.7553 12.4885C11.9654 12.3099 12.0704 12.0648 12.0704 11.7532C12.0704 11.0529 11.708 10.6975 10.9833 10.687H9.53892ZM9.53892 9.57357H10.7049C11.4997 9.55956 11.8971 9.24268 11.8971 8.62293C11.8971 8.2763 11.7956 8.0277 11.5925 7.87714C11.3929 7.72307 11.076 7.64604 10.6419 7.64604H9.53892V9.57357Z" fill="black"/>
<defs>
<filter id="filter0_d" x="18.5396" y="1.66833" width="9.44463" height="7.203" filterUnits="userSpaceOnUse" color-interpolation-filters="sRGB">
<feFlood flood-opacity="0" result="BackgroundImageFix"/>
<feColorMatrix in="SourceAlpha" type="matrix" values="0 0 0 0 0 0 0 0 0 0 0 0 0 0 0 0 0 0 127 0" result="hardAlpha"/>
<feOffset dy="0.584028"/>
<feColorMatrix type="matrix" values="0 0 0 0 0 0 0 0 0 0 0 0 0 0 0 0 0 0 0.06 0"/>
<feBlend mode="normal" in2="BackgroundImageFix" result="effect1_dropShadow"/>
<feBlend mode="normal" in="SourceGraphic" in2="effect1_dropShadow" result="shape"/>
</filter>
<linearGradient id="paint0_linear" x1="18.5396" y1="1.66833" x2="18.5396" y2="8.28732" gradientUnits="userSpaceOnUse">
<stop stop-color="white"/>
<stop offset="1" stop-color="#F0F0F0"/>
</linearGradient>
</defs>
</svg>
