<svg width="35" height="36" viewBox="0 0 35 36" fill="none" xmlns="http://www.w3.org/2000/svg">
<path fill-rule="evenodd" clip-rule="evenodd" d="M17.5 35.0125C27.165 35.0125 35 27.1774 35 17.5125C35 7.84747 27.165 0.0124512 17.5 0.0124512C7.83502 0.0124512 0 7.84747 0 17.5125C0 27.1774 7.83502 35.0125 17.5 35.0125Z" fill="#2F3139"/>
<path d="M8.61606 13.0617H10.5298C11.1525 13.0617 11.6196 13.2288 11.9309 13.5629C12.2423 13.8971 12.398 14.3869 12.398 15.0324V19.0649C12.398 19.7105 12.2423 20.2003 11.9309 20.5344C11.6196 20.8686 11.1525 21.0356 10.5298 21.0356H8.61606V13.0617ZM10.507 19.8965C10.7121 19.8965 10.8677 19.8358 10.9741 19.7143C11.088 19.5927 11.1449 19.3953 11.1449 19.1219V14.9755C11.1449 14.7021 11.088 14.5046 10.9741 14.3831C10.8677 14.2616 10.7121 14.2009 10.507 14.2009H9.8691V19.8965H10.507ZM13.2438 13.0617H16.6612V14.2009H14.4968V16.3083H16.2169V17.4474H14.4968V19.8965H16.6612V21.0356H13.2438V13.0617ZM19.1591 21.1496C18.5439 21.1496 18.0769 20.9787 17.7579 20.6369C17.4466 20.2952 17.2909 19.8054 17.2909 19.1675V18.5182H18.4756V19.2244C18.4756 19.7484 18.692 20.0104 19.1249 20.0104C19.3375 20.0104 19.497 19.9459 19.6033 19.8168C19.7172 19.6801 19.7742 19.4447 19.7742 19.1105V18.4612C19.7742 18.0967 19.7096 17.8385 19.5805 17.6866C19.4514 17.5271 19.2426 17.4474 18.954 17.4474H18.5325V16.3083H18.9882C19.2388 16.3083 19.4249 16.2437 19.5464 16.1146C19.6755 15.9855 19.74 15.7691 19.74 15.4653V14.8843C19.74 14.6109 19.6831 14.4097 19.5692 14.2806C19.4552 14.1515 19.3034 14.0869 19.1135 14.0869C18.711 14.0869 18.5098 14.3338 18.5098 14.8274V15.3514H17.3251V14.9299C17.3251 14.292 17.4807 13.8022 17.7921 13.4604C18.1111 13.1187 18.5667 12.9478 19.1591 12.9478C19.759 12.9478 20.2147 13.1187 20.526 13.4604C20.8374 13.7946 20.9931 14.2806 20.9931 14.9185V15.2033C20.9931 15.6362 20.9209 15.9855 20.7766 16.2513C20.6323 16.5095 20.4083 16.6956 20.1045 16.8095V16.8323C20.4311 16.9538 20.6665 17.1512 20.8108 17.4246C20.9551 17.698 21.0272 18.0473 21.0272 18.4726V19.1789C21.0272 19.8168 20.8678 20.3066 20.5488 20.6483C20.2374 20.9825 19.7742 21.1496 19.1591 21.1496ZM23.7542 21.1496C23.1391 21.1496 22.6682 20.9749 22.3417 20.6256C22.0151 20.2762 21.8519 19.7826 21.8519 19.1447V14.9527C21.8519 14.3148 22.0151 13.8212 22.3417 13.4718C22.6682 13.1225 23.1391 12.9478 23.7542 12.9478C24.3693 12.9478 24.8402 13.1225 25.1667 13.4718C25.4933 13.8212 25.6566 14.3148 25.6566 14.9527V19.1447C25.6566 19.7826 25.4933 20.2762 25.1667 20.6256C24.8402 20.9749 24.3693 21.1496 23.7542 21.1496ZM23.7542 20.0104C24.1871 20.0104 24.4035 19.7484 24.4035 19.2244V14.8729C24.4035 14.3489 24.1871 14.0869 23.7542 14.0869C23.3213 14.0869 23.1049 14.3489 23.1049 14.8729V19.2244C23.1049 19.7484 23.3213 20.0104 23.7542 20.0104Z" fill="white"/>
</svg>
