<svg width="38" height="21" viewBox="0 0 38 21" fill="none" xmlns="http://www.w3.org/2000/svg">
<mask id="mask0" style="mask-type:alpha" maskUnits="userSpaceOnUse" x="0" y="0" width="21" height="21">
<ellipse cx="10.548" cy="10.1722" rx="10.1192" ry="9.92847" fill="#C4C4C4"/>
</mask>
<g mask="url(#mask0)">
<rect x="0.428711" y="0.243774" width="28.3339" height="19.8569" rx="1.16806" fill="#9CB9F1"/>
</g>
<mask id="mask1" style="mask-type:alpha" maskUnits="userSpaceOnUse" x="0" y="0" width="29" height="21">
<rect x="0.428711" y="0.243774" width="28.3339" height="19.8569" rx="1.16806" fill="white"/>
</mask>
<g mask="url(#mask1)">
</g>
<mask id="mask2" style="mask-type:alpha" maskUnits="userSpaceOnUse" x="17" y="0" width="21" height="21">
<ellipse cx="27.3095" cy="10.1722" rx="10.1192" ry="9.92847" fill="#C4C4C4"/>
</mask>
<g mask="url(#mask2)">
<rect x="17.1903" y="0.243774" width="28.3339" height="19.8569" rx="1.16806" fill="white"/>
<mask id="mask3" style="mask-type:alpha" maskUnits="userSpaceOnUse" x="17" y="0" width="29" height="21">
<rect x="17.1903" y="0.243774" width="28.3339" height="19.8569" rx="1.16806" fill="white"/>
</mask>
<g mask="url(#mask3)">
<path fill-rule="evenodd" clip-rule="evenodd" d="M45.5242 0.243774H17.1903V1.56757H45.5242V0.243774ZM45.5242 2.89136H17.1903V4.21516H45.5242V2.89136ZM17.1903 5.53895H45.5242V6.86275H17.1903V5.53895ZM45.5242 8.18654H17.1903V9.51033H45.5242V8.18654ZM17.1903 10.8342H45.5242V12.158H17.1903V10.8342ZM45.5242 13.4818H17.1903V14.8055H45.5242V13.4818ZM17.1903 16.1293H45.5242V17.4531H17.1903V16.1293ZM45.5242 18.7769H17.1903V20.1007H45.5242V18.7769Z" fill="#D02F44"/>
<rect x="17.1903" y="0.243774" width="12.1431" height="9.26657" fill="#46467F"/>
<g filter="url(#filter0_d)">
<path fill-rule="evenodd" clip-rule="evenodd" d="M19.8888 2.22946C19.8888 2.59502 19.5868 2.89136 19.2142 2.89136C18.8416 2.89136 18.5396 2.59502 18.5396 2.22946C18.5396 1.86391 18.8416 1.56757 19.2142 1.56757C19.5868 1.56757 19.8888 1.86391 19.8888 2.22946ZM22.5873 2.22947C22.5873 2.59502 22.2852 2.89137 21.9127 2.89137C21.5401 2.89137 21.238 2.59502 21.238 2.22947C21.238 1.86391 21.5401 1.56757 21.9127 1.56757C22.2852 1.56757 22.5873 1.86391 22.5873 2.22947ZM24.6111 2.89137C24.9837 2.89137 25.2857 2.59502 25.2857 2.22947C25.2857 1.86391 24.9837 1.56757 24.6111 1.56757C24.2385 1.56757 23.9365 1.86391 23.9365 2.22947C23.9365 2.59502 24.2385 2.89137 24.6111 2.89137ZM27.9842 2.22947C27.9842 2.59502 27.6821 2.89137 27.3096 2.89137C26.937 2.89137 26.635 2.59502 26.635 2.22947C26.635 1.86391 26.937 1.56757 27.3096 1.56757C27.6821 1.56757 27.9842 1.86391 27.9842 2.22947ZM20.5634 4.21516C20.936 4.21516 21.238 3.91882 21.238 3.55326C21.238 3.1877 20.936 2.89136 20.5634 2.89136C20.1908 2.89136 19.8888 3.1877 19.8888 3.55326C19.8888 3.91882 20.1908 4.21516 20.5634 4.21516ZM23.9365 3.55326C23.9365 3.91882 23.6344 4.21516 23.2619 4.21516C22.8893 4.21516 22.5873 3.91882 22.5873 3.55326C22.5873 3.1877 22.8893 2.89136 23.2619 2.89136C23.6344 2.89136 23.9365 3.1877 23.9365 3.55326ZM25.9604 4.21516C26.3329 4.21516 26.635 3.91882 26.635 3.55326C26.635 3.1877 26.3329 2.89136 25.9604 2.89136C25.5878 2.89136 25.2857 3.1877 25.2857 3.55326C25.2857 3.91882 25.5878 4.21516 25.9604 4.21516ZM27.9842 4.87705C27.9842 5.24261 27.6821 5.53895 27.3096 5.53895C26.937 5.53895 26.635 5.24261 26.635 4.87705C26.635 4.5115 26.937 4.21516 27.3096 4.21516C27.6821 4.21516 27.9842 4.5115 27.9842 4.87705ZM24.6111 5.53895C24.9837 5.53895 25.2857 5.24261 25.2857 4.87705C25.2857 4.5115 24.9837 4.21516 24.6111 4.21516C24.2385 4.21516 23.9365 4.5115 23.9365 4.87705C23.9365 5.24261 24.2385 5.53895 24.6111 5.53895ZM22.5873 4.87705C22.5873 5.24261 22.2852 5.53895 21.9127 5.53895C21.5401 5.53895 21.238 5.24261 21.238 4.87705C21.238 4.5115 21.5401 4.21516 21.9127 4.21516C22.2852 4.21516 22.5873 4.5115 22.5873 4.87705ZM19.2142 5.53895C19.5867 5.53895 19.8888 5.24261 19.8888 4.87705C19.8888 4.5115 19.5867 4.21516 19.2142 4.21516C18.8416 4.21516 18.5396 4.5115 18.5396 4.87705C18.5396 5.24261 18.8416 5.53895 19.2142 5.53895ZM21.238 6.20085C21.238 6.5664 20.936 6.86275 20.5634 6.86275C20.1908 6.86275 19.8888 6.5664 19.8888 6.20085C19.8888 5.83529 20.1908 5.53895 20.5634 5.53895C20.936 5.53895 21.238 5.83529 21.238 6.20085ZM23.2619 6.86275C23.6344 6.86275 23.9365 6.5664 23.9365 6.20085C23.9365 5.83529 23.6344 5.53895 23.2619 5.53895C22.8893 5.53895 22.5873 5.83529 22.5873 6.20085C22.5873 6.5664 22.8893 6.86275 23.2619 6.86275ZM26.635 6.20085C26.635 6.5664 26.3329 6.86275 25.9604 6.86275C25.5878 6.86275 25.2857 6.5664 25.2857 6.20085C25.2857 5.83529 25.5878 5.53895 25.9604 5.53895C26.3329 5.53895 26.635 5.83529 26.635 6.20085ZM27.3096 8.18654C27.6821 8.18654 27.9842 7.8902 27.9842 7.52464C27.9842 7.15909 27.6821 6.86274 27.3096 6.86274C26.937 6.86274 26.635 7.15909 26.635 7.52464C26.635 7.8902 26.937 8.18654 27.3096 8.18654ZM25.2857 7.52464C25.2857 7.8902 24.9837 8.18654 24.6111 8.18654C24.2385 8.18654 23.9365 7.8902 23.9365 7.52464C23.9365 7.15909 24.2385 6.86274 24.6111 6.86274C24.9837 6.86274 25.2857 7.15909 25.2857 7.52464ZM21.9127 8.18654C22.2852 8.18654 22.5873 7.8902 22.5873 7.52464C22.5873 7.15909 22.2852 6.86274 21.9127 6.86274C21.5401 6.86274 21.238 7.15909 21.238 7.52464C21.238 7.8902 21.5401 8.18654 21.9127 8.18654ZM19.8888 7.52464C19.8888 7.8902 19.5867 8.18654 19.2142 8.18654C18.8416 8.18654 18.5396 7.8902 18.5396 7.52464C18.5396 7.15909 18.8416 6.86274 19.2142 6.86274C19.5867 6.86274 19.8888 7.15909 19.8888 7.52464Z" fill="url(#paint0_linear)"/>
</g>
</g>
</g>
<path d="M12.5641 10.602H9.53892V12.6503H13.0893V13.9161H7.96329V6.26901H13.0788V7.54527H9.53892V9.36775H12.5641V10.602Z" fill="#1D1D20"/>
<defs>
<filter id="filter0_d" x="18.5396" y="1.56757" width="9.44463" height="7.203" filterUnits="userSpaceOnUse" color-interpolation-filters="sRGB">
<feFlood flood-opacity="0" result="BackgroundImageFix"/>
<feColorMatrix in="SourceAlpha" type="matrix" values="0 0 0 0 0 0 0 0 0 0 0 0 0 0 0 0 0 0 127 0" result="hardAlpha"/>
<feOffset dy="0.584028"/>
<feColorMatrix type="matrix" values="0 0 0 0 0 0 0 0 0 0 0 0 0 0 0 0 0 0 0.06 0"/>
<feBlend mode="normal" in2="BackgroundImageFix" result="effect1_dropShadow"/>
<feBlend mode="normal" in="SourceGraphic" in2="effect1_dropShadow" result="shape"/>
</filter>
<linearGradient id="paint0_linear" x1="18.5396" y1="1.56757" x2="18.5396" y2="8.18655" gradientUnits="userSpaceOnUse">
<stop stop-color="white"/>
<stop offset="1" stop-color="#F0F0F0"/>
</linearGradient>
</defs>
</svg>
