<svg width="47" height="26" viewBox="0 0 47 26" fill="none" xmlns="http://www.w3.org/2000/svg">
<mask id="mask0" style="mask-type:alpha" maskUnits="userSpaceOnUse" x="0" y="0" width="26" height="26">
<ellipse cx="13.0854" cy="13.2084" rx="12.571" ry="12.5952" fill="#C4C4C4"/>
</mask>
<g mask="url(#mask0)">
<rect x="-4.51343" y="0.613159" width="35.1987" height="25.1905" rx="1.70787" fill="white"/>
<mask id="mask1" style="mask-type:alpha" maskUnits="userSpaceOnUse" x="-5" y="0" width="36" height="26">
<rect x="-4.51343" y="0.613159" width="35.1987" height="25.1905" rx="1.70787" fill="white"/>
</mask>
<g mask="url(#mask1)">
<rect x="-4.51343" y="0.613159" width="35.1987" height="25.1905" fill="#043CAE"/>
<path fill-rule="evenodd" clip-rule="evenodd" d="M11.9009 5.99913L13.0861 5.65132L14.2713 5.99913L13.9242 4.81164L14.2713 3.62415L13.0861 3.97195L11.9009 3.62415L12.2481 4.81164L11.9009 5.99913ZM11.9009 22.7928L13.0861 22.445L14.2713 22.7928L13.9242 21.6053L14.2713 20.4178L13.0861 20.7657L11.9009 20.4178L12.2481 21.6053L11.9009 22.7928ZM21.4666 14.0482L20.2814 14.396L20.6285 13.2085L20.2814 12.021L21.4666 12.3688L22.6518 12.021L22.3047 13.2085L22.6518 14.396L21.4666 14.0482ZM3.52002 14.396L4.70522 14.0482L5.89043 14.396L5.54329 13.2085L5.89043 12.021L4.70522 12.3688L3.52002 12.021L3.86716 13.2085L3.52002 14.396ZM20.3439 9.8499L19.1587 10.1977L19.5059 9.01022L19.1587 7.82273L20.3439 8.17053L21.5291 7.82273L21.182 9.01022L21.5291 10.1977L20.3439 9.8499ZM4.64289 18.5943L5.8281 18.2465L7.0133 18.5943L6.66616 17.4069L7.0133 16.2194L5.8281 16.5672L4.64289 16.2194L4.99003 17.4069L4.64289 18.5943ZM17.2764 6.77638L16.0912 7.12419L16.4383 5.9367L16.0912 4.74921L17.2764 5.09702L18.4616 4.74921L18.1144 5.9367L18.4616 7.12419L17.2764 6.77638ZM7.71047 21.6678L8.89567 21.32L10.0809 21.6678L9.73374 20.4803L10.0809 19.2928L8.89567 19.6406L7.71047 19.2928L8.05761 20.4803L7.71047 21.6678ZM20.3439 18.2465L19.1587 18.5943L19.5059 17.4069L19.1587 16.2194L20.3439 16.5672L21.5291 16.2194L21.182 17.4069L21.5291 18.5943L20.3439 18.2465ZM4.64289 10.1977L5.8281 9.8499L7.0133 10.1977L6.66616 9.01022L7.0133 7.82273L5.8281 8.17053L4.64289 7.82273L4.99003 9.01022L4.64289 10.1977ZM17.2764 21.32L16.0912 21.6678L16.4383 20.4803L16.0912 19.2928L17.2764 19.6406L18.4616 19.2928L18.1144 20.4803L18.4616 21.6678L17.2764 21.32ZM7.71047 7.12419L8.89567 6.77638L10.0809 7.12419L9.73374 5.9367L10.0809 4.74921L8.89567 5.09702L7.71047 4.74921L8.05761 5.9367L7.71047 7.12419Z" fill="#FFD429"/>
</g>
</g>
<mask id="mask2" style="mask-type:alpha" maskUnits="userSpaceOnUse" x="21" y="0" width="26" height="26">
<ellipse cx="33.9511" cy="13.2244" rx="12.5871" ry="12.6114" fill="#C4C4C4"/>
</mask>
<g mask="url(#mask2)">
<rect x="21.364" y="0.613037" width="35.2439" height="25.2228" rx="1.70787" fill="white"/>
<mask id="mask3" style="mask-type:alpha" maskUnits="userSpaceOnUse" x="21" y="0" width="36" height="26">
<rect x="21.364" y="0.613037" width="35.2439" height="25.2228" rx="1.70787" fill="white"/>
</mask>
<g mask="url(#mask3)">
<path fill-rule="evenodd" clip-rule="evenodd" d="M56.6079 0.613037H21.364V2.29456H56.6079V0.613037ZM56.6079 3.97603H21.364V5.65755H56.6079V3.97603ZM21.364 7.33913H56.6079V9.02065H21.364V7.33913ZM56.6079 10.7021H21.364V12.3836H56.6079V10.7021ZM21.364 14.0652H56.6079V15.7467H21.364V14.0652ZM56.6079 17.4282H21.364V19.1097H56.6079V17.4282ZM21.364 20.7913H56.6079V22.4728H21.364V20.7913ZM56.6079 24.1543H21.364V25.8358H56.6079V24.1543Z" fill="#D02F44"/>
<rect x="21.364" y="0.613037" width="15.1045" height="11.7706" fill="#46467F"/>
<g filter="url(#filter0_d)">
<path fill-rule="evenodd" clip-rule="evenodd" d="M28.0771 3.13532C28.0771 3.59966 27.7014 3.97608 27.2379 3.97608C26.7745 3.97608 26.3988 3.59966 26.3988 3.13532C26.3988 2.67098 26.7745 2.29456 27.2379 2.29456C27.7014 2.29456 28.0771 2.67098 28.0771 3.13532ZM24.7205 3.13534C24.7205 3.59968 24.3448 3.9761 23.8814 3.9761C23.4179 3.9761 23.0422 3.59968 23.0422 3.13534C23.0422 2.671 23.4179 2.29458 23.8814 2.29458C24.3448 2.29458 24.7205 2.671 24.7205 3.13534ZM30.5945 3.97608C31.0579 3.97608 31.4336 3.59966 31.4336 3.13532C31.4336 2.67098 31.0579 2.29456 30.5945 2.29456C30.131 2.29456 29.7553 2.67098 29.7553 3.13532C29.7553 3.59966 30.131 3.97608 30.5945 3.97608ZM34.7902 3.13532C34.7902 3.59966 34.4145 3.97608 33.951 3.97608C33.4876 3.97608 33.1119 3.59966 33.1119 3.13532C33.1119 2.67098 33.4876 2.29456 33.951 2.29456C34.4145 2.29456 34.7902 2.67098 34.7902 3.13532ZM25.5597 5.65757C26.0231 5.65757 26.3988 5.28115 26.3988 4.81681C26.3988 4.35247 26.0231 3.97605 25.5597 3.97605C25.0962 3.97605 24.7205 4.35247 24.7205 4.81681C24.7205 5.28115 25.0962 5.65757 25.5597 5.65757ZM29.7554 4.81681C29.7554 5.28115 29.3797 5.65757 28.9162 5.65757C28.4528 5.65757 28.0771 5.28115 28.0771 4.81681C28.0771 4.35247 28.4528 3.97605 28.9162 3.97605C29.3797 3.97605 29.7554 4.35247 29.7554 4.81681ZM32.2727 5.65757C32.7362 5.65757 33.1119 5.28115 33.1119 4.81681C33.1119 4.35247 32.7362 3.97605 32.2727 3.97605C31.8093 3.97605 31.4336 4.35247 31.4336 4.81681C31.4336 5.28115 31.8093 5.65757 32.2727 5.65757ZM34.7902 6.49831C34.7902 6.96265 34.4145 7.33907 33.951 7.33907C33.4876 7.33907 33.1119 6.96265 33.1119 6.49831C33.1119 6.03397 33.4876 5.65755 33.951 5.65755C34.4145 5.65755 34.7902 6.03397 34.7902 6.49831ZM30.5945 7.33907C31.0579 7.33907 31.4336 6.96265 31.4336 6.49831C31.4336 6.03397 31.0579 5.65755 30.5945 5.65755C30.131 5.65755 29.7553 6.03397 29.7553 6.49831C29.7553 6.96265 30.131 7.33907 30.5945 7.33907ZM28.0771 6.49831C28.0771 6.96265 27.7014 7.33907 27.2379 7.33907C26.7745 7.33907 26.3988 6.96265 26.3988 6.49831C26.3988 6.03397 26.7745 5.65755 27.2379 5.65755C27.7014 5.65755 28.0771 6.03397 28.0771 6.49831ZM23.8814 7.33907C24.3449 7.33907 24.7206 6.96265 24.7206 6.49831C24.7206 6.03397 24.3449 5.65755 23.8814 5.65755C23.418 5.65755 23.0423 6.03397 23.0423 6.49831C23.0423 6.96265 23.418 7.33907 23.8814 7.33907ZM26.3988 8.17991C26.3988 8.64425 26.0231 9.02067 25.5597 9.02067C25.0962 9.02067 24.7205 8.64425 24.7205 8.17991C24.7205 7.71557 25.0962 7.33915 25.5597 7.33915C26.0231 7.33915 26.3988 7.71557 26.3988 8.17991ZM28.9162 9.02067C29.3797 9.02067 29.7554 8.64425 29.7554 8.17991C29.7554 7.71557 29.3797 7.33915 28.9162 7.33915C28.4528 7.33915 28.0771 7.71557 28.0771 8.17991C28.0771 8.64425 28.4528 9.02067 28.9162 9.02067ZM33.1119 8.17991C33.1119 8.64425 32.7362 9.02067 32.2727 9.02067C31.8093 9.02067 31.4336 8.64425 31.4336 8.17991C31.4336 7.71557 31.8093 7.33915 32.2727 7.33915C32.7362 7.33915 33.1119 7.71557 33.1119 8.17991ZM33.951 10.7022C34.4145 10.7022 34.7902 10.3257 34.7902 9.86141C34.7902 9.39707 34.4145 9.02065 33.951 9.02065C33.4876 9.02065 33.1119 9.39707 33.1119 9.86141C33.1119 10.3257 33.4876 10.7022 33.951 10.7022ZM31.4336 9.86141C31.4336 10.3257 31.0579 10.7022 30.5945 10.7022C30.131 10.7022 29.7553 10.3257 29.7553 9.86141C29.7553 9.39707 30.131 9.02065 30.5945 9.02065C31.0579 9.02065 31.4336 9.39707 31.4336 9.86141ZM27.2379 10.7022C27.7014 10.7022 28.0771 10.3257 28.0771 9.86141C28.0771 9.39707 27.7014 9.02065 27.2379 9.02065C26.7745 9.02065 26.3988 9.39707 26.3988 9.86141C26.3988 10.3257 26.7745 10.7022 27.2379 10.7022ZM24.7206 9.86141C24.7206 10.3257 24.3449 10.7022 23.8814 10.7022C23.418 10.7022 23.0423 10.3257 23.0423 9.86141C23.0423 9.39707 23.418 9.02065 23.8814 9.02065C24.3449 9.02065 24.7206 9.39707 24.7206 9.86141Z" fill="url(#paint0_linear)"/>
</g>
</g>
</g>
<defs>
<filter id="filter0_d" x="23.0422" y="2.29456" width="11.7479" height="9.26155" filterUnits="userSpaceOnUse" color-interpolation-filters="sRGB">
<feFlood flood-opacity="0" result="BackgroundImageFix"/>
<feColorMatrix in="SourceAlpha" type="matrix" values="0 0 0 0 0 0 0 0 0 0 0 0 0 0 0 0 0 0 127 0" result="hardAlpha"/>
<feOffset dy="0.853935"/>
<feColorMatrix type="matrix" values="0 0 0 0 0 0 0 0 0 0 0 0 0 0 0 0 0 0 0.06 0"/>
<feBlend mode="normal" in2="BackgroundImageFix" result="effect1_dropShadow"/>
<feBlend mode="normal" in="SourceGraphic" in2="effect1_dropShadow" result="shape"/>
</filter>
<linearGradient id="paint0_linear" x1="23.0422" y1="2.29456" x2="23.0422" y2="10.7022" gradientUnits="userSpaceOnUse">
<stop stop-color="white"/>
<stop offset="1" stop-color="#F0F0F0"/>
</linearGradient>
</defs>
</svg>
