<svg width="37" height="22" viewBox="0 0 37 22" fill="none" xmlns="http://www.w3.org/2000/svg">
<mask id="mask0" style="mask-type:alpha" maskUnits="userSpaceOnUse" x="0" y="0" width="21" height="22">
<circle cx="10.1202" cy="11.0195" r="10.1202" fill="#C4C4C4"/>
</mask>
<g mask="url(#mask0)">
<rect x="-4.0481" y="0.899292" width="28.3365" height="20.2404" rx="1.34454" fill="white"/>
<mask id="mask1" style="mask-type:alpha" maskUnits="userSpaceOnUse" x="-5" y="0" width="30" height="22">
<rect x="-4.0481" y="0.899292" width="28.3365" height="20.2404" rx="1.34454" fill="white"/>
</mask>
<g mask="url(#mask1)">
<rect x="-4.0481" y="0.899292" width="28.3365" height="20.2404" fill="#0A17A7"/>
<path fill-rule="evenodd" clip-rule="evenodd" d="M-5.34588 -1.04028L6.74684 7.11636V-0.450201H13.4936V7.11645L25.5865 -1.04026L27.0956 1.19708L17.5347 7.64595H24.2885V14.3927H17.5345L27.0955 20.8417L25.5864 23.0791L13.4936 14.9224V22.4889H6.74684V14.9225L-5.34585 23.0791L-6.85495 20.8417L2.70608 14.3927H-4.04803V7.64595H2.7059L-6.85498 1.19705L-5.34588 -1.04028Z" fill="white"/>
<path d="M14.8442 7.30758L27.6618 -1.12476" stroke="#DB1F35" stroke-width="0.44818" stroke-linecap="round"/>
<path d="M16.2052 14.7614L27.6955 22.5062" stroke="#DB1F35" stroke-width="0.44818" stroke-linecap="round"/>
<path d="M4.05372 7.28569L-7.93164 -0.791687" stroke="#DB1F35" stroke-width="0.44818" stroke-linecap="round"/>
<path d="M5.35367 14.6678L-7.93164 23.478" stroke="#DB1F35" stroke-width="0.44818" stroke-linecap="round"/>
<path fill-rule="evenodd" clip-rule="evenodd" d="M-4.0481 13.0435H8.09614V21.1397H12.1442V13.0435H24.2884V8.99545H12.1442V0.899292H8.09614V8.99545H-4.0481V13.0435Z" fill="#E6273E"/>
</g>
</g>
<mask id="mask2" style="mask-type:alpha" maskUnits="userSpaceOnUse" x="16" y="0" width="21" height="22">
<circle cx="26.8807" cy="11.0185" r="10.1192" fill="#C4C4C4"/>
</mask>
<g mask="url(#mask2)">
<rect x="16.7615" y="0.899292" width="28.3338" height="20.2384" rx="1.34454" fill="white"/>
<mask id="mask3" style="mask-type:alpha" maskUnits="userSpaceOnUse" x="16" y="0" width="30" height="22">
<rect x="16.7615" y="0.899292" width="28.3338" height="20.2384" rx="1.34454" fill="white"/>
</mask>
<g mask="url(#mask3)">
<path fill-rule="evenodd" clip-rule="evenodd" d="M45.0953 0.899292H16.7615V2.24852H45.0953V0.899292ZM45.0953 3.59777H16.7615V4.94699H45.0953V3.59777ZM16.7615 6.2962H45.0953V7.64543H16.7615V6.2962ZM45.0953 8.99467H16.7615V10.3439H45.0953V8.99467ZM16.7615 11.6931H45.0953V13.0424H16.7615V11.6931ZM45.0953 14.3916H16.7615V15.7408H45.0953V14.3916ZM16.7615 17.0901H45.0953V18.4393H16.7615V17.0901ZM45.0953 19.7885H16.7615V21.1377H45.0953V19.7885Z" fill="#D02F44"/>
<rect x="16.7615" y="0.899292" width="12.1431" height="9.44461" fill="#46467F"/>
<g filter="url(#filter0_d)">
<path fill-rule="evenodd" clip-rule="evenodd" d="M22.1584 2.92315C22.1584 3.29573 21.8563 3.59776 21.4838 3.59776C21.1112 3.59776 20.8092 3.29573 20.8092 2.92315C20.8092 2.55057 21.1112 2.24854 21.4838 2.24854C21.8563 2.24854 22.1584 2.55057 22.1584 2.92315ZM19.46 2.92318C19.46 3.29576 19.1579 3.59779 18.7854 3.59779C18.4128 3.59779 18.1107 3.29576 18.1107 2.92318C18.1107 2.5506 18.4128 2.24856 18.7854 2.24856C19.1579 2.24856 19.46 2.5506 19.46 2.92318ZM24.1823 3.59776C24.5549 3.59776 24.8569 3.29573 24.8569 2.92315C24.8569 2.55057 24.5549 2.24854 24.1823 2.24854C23.8097 2.24854 23.5077 2.55057 23.5077 2.92315C23.5077 3.29573 23.8097 3.59776 24.1823 3.59776ZM27.5553 2.92315C27.5553 3.29573 27.2533 3.59776 26.8807 3.59776C26.5081 3.59776 26.2061 3.29573 26.2061 2.92315C26.2061 2.55057 26.5081 2.24854 26.8807 2.24854C27.2533 2.24854 27.5553 2.55057 27.5553 2.92315ZM20.1345 4.94698C20.5071 4.94698 20.8092 4.64495 20.8092 4.27237C20.8092 3.89979 20.5071 3.59775 20.1345 3.59775C19.762 3.59775 19.4599 3.89979 19.4599 4.27237C19.4599 4.64495 19.762 4.94698 20.1345 4.94698ZM23.5076 4.27237C23.5076 4.64495 23.2056 4.94698 22.833 4.94698C22.4604 4.94698 22.1584 4.64495 22.1584 4.27237C22.1584 3.89979 22.4604 3.59775 22.833 3.59775C23.2056 3.59775 23.5076 3.89979 23.5076 4.27237ZM25.5315 4.94698C25.9041 4.94698 26.2061 4.64495 26.2061 4.27237C26.2061 3.89979 25.9041 3.59775 25.5315 3.59775C25.1589 3.59775 24.8569 3.89979 24.8569 4.27237C24.8569 4.64495 25.1589 4.94698 25.5315 4.94698ZM27.5553 5.62162C27.5553 5.9942 27.2533 6.29624 26.8807 6.29624C26.5081 6.29624 26.2061 5.9942 26.2061 5.62162C26.2061 5.24904 26.5081 4.94701 26.8807 4.94701C27.2533 4.94701 27.5553 5.24904 27.5553 5.62162ZM24.1823 6.29624C24.5549 6.29624 24.8569 5.9942 24.8569 5.62162C24.8569 5.24904 24.5549 4.94701 24.1823 4.94701C23.8097 4.94701 23.5077 5.24904 23.5077 5.62162C23.5077 5.9942 23.8097 6.29624 24.1823 6.29624ZM22.1584 5.62162C22.1584 5.9942 21.8563 6.29624 21.4838 6.29624C21.1112 6.29624 20.8092 5.9942 20.8092 5.62162C20.8092 5.24904 21.1112 4.94701 21.4838 4.94701C21.8563 4.94701 22.1584 5.24904 22.1584 5.62162ZM18.7853 6.29624C19.1579 6.29624 19.4599 5.9942 19.4599 5.62162C19.4599 5.24904 19.1579 4.94701 18.7853 4.94701C18.4128 4.94701 18.1107 5.24904 18.1107 5.62162C18.1107 5.9942 18.4128 6.29624 18.7853 6.29624ZM20.8092 6.97084C20.8092 7.34342 20.5071 7.64545 20.1345 7.64545C19.762 7.64545 19.4599 7.34342 19.4599 6.97084C19.4599 6.59826 19.762 6.29623 20.1345 6.29623C20.5071 6.29623 20.8092 6.59826 20.8092 6.97084ZM22.833 7.64545C23.2056 7.64545 23.5076 7.34342 23.5076 6.97084C23.5076 6.59826 23.2056 6.29623 22.833 6.29623C22.4604 6.29623 22.1584 6.59826 22.1584 6.97084C22.1584 7.34342 22.4604 7.64545 22.833 7.64545ZM26.2061 6.97084C26.2061 7.34342 25.9041 7.64545 25.5315 7.64545C25.1589 7.64545 24.8569 7.34342 24.8569 6.97084C24.8569 6.59826 25.1589 6.29623 25.5315 6.29623C25.9041 6.29623 26.2061 6.59826 26.2061 6.97084ZM26.8807 8.99467C27.2533 8.99467 27.5553 8.69264 27.5553 8.32006C27.5553 7.94748 27.2533 7.64544 26.8807 7.64544C26.5081 7.64544 26.2061 7.94748 26.2061 8.32006C26.2061 8.69264 26.5081 8.99467 26.8807 8.99467ZM24.8569 8.32006C24.8569 8.69264 24.5549 8.99467 24.1823 8.99467C23.8097 8.99467 23.5077 8.69264 23.5077 8.32006C23.5077 7.94748 23.8097 7.64544 24.1823 7.64544C24.5549 7.64544 24.8569 7.94748 24.8569 8.32006ZM21.4838 8.99467C21.8563 8.99467 22.1584 8.69264 22.1584 8.32006C22.1584 7.94748 21.8563 7.64544 21.4838 7.64544C21.1112 7.64544 20.8092 7.94748 20.8092 8.32006C20.8092 8.69264 21.1112 8.99467 21.4838 8.99467ZM19.4599 8.32006C19.4599 8.69264 19.1579 8.99467 18.7853 8.99467C18.4128 8.99467 18.1107 8.69264 18.1107 8.32006C18.1107 7.94748 18.4128 7.64544 18.7853 7.64544C19.1579 7.64544 19.4599 7.94748 19.4599 8.32006Z" fill="url(#paint0_linear)"/>
</g>
</g>
</g>
<defs>
<filter id="filter0_d" x="18.1107" y="2.24854" width="9.44461" height="7.41841" filterUnits="userSpaceOnUse" color-interpolation-filters="sRGB">
<feFlood flood-opacity="0" result="BackgroundImageFix"/>
<feColorMatrix in="SourceAlpha" type="matrix" values="0 0 0 0 0 0 0 0 0 0 0 0 0 0 0 0 0 0 127 0" result="hardAlpha"/>
<feOffset dy="0.672269"/>
<feColorMatrix type="matrix" values="0 0 0 0 0 0 0 0 0 0 0 0 0 0 0 0 0 0 0.06 0"/>
<feBlend mode="normal" in2="BackgroundImageFix" result="effect1_dropShadow"/>
<feBlend mode="normal" in="SourceGraphic" in2="effect1_dropShadow" result="shape"/>
</filter>
<linearGradient id="paint0_linear" x1="18.1107" y1="2.24854" x2="18.1107" y2="8.99468" gradientUnits="userSpaceOnUse">
<stop stop-color="white"/>
<stop offset="1" stop-color="#F0F0F0"/>
</linearGradient>
</defs>
</svg>
