<svg width="35" height="36" viewBox="0 0 35 36" fill="none" xmlns="http://www.w3.org/2000/svg">
<path fill-rule="evenodd" clip-rule="evenodd" d="M17.5 35.5093C27.165 35.5093 35 27.6743 35 18.0093C35 8.34429 27.165 0.509277 17.5 0.509277C7.83502 0.509277 0 8.34429 0 18.0093C0 27.6743 7.83502 35.5093 17.5 35.5093Z" fill="#2F3139"/>
<path d="M8.24896 13.5587H9.502V16.8052H10.8462V13.5587H12.0992V21.5326H10.8462V17.9443H9.502V21.5326H8.24896V13.5587ZM13.0324 13.5587H14.2855V16.9191L15.8802 13.5587H17.1333L15.641 16.4862L17.1561 21.5326H15.8461L14.7867 17.9785L14.2855 18.9923V21.5326H13.0324V13.5587ZM19.5831 21.6465C18.9756 21.6465 18.5123 21.4756 18.1934 21.1339C17.8744 20.7846 17.715 20.2871 17.715 19.6416V19.0151H18.8996V19.7328C18.8996 20.2492 19.1161 20.5074 19.549 20.5074C19.9818 20.5074 20.1983 20.2492 20.1983 19.7328V17.9443C20.1983 17.4203 19.9818 17.1583 19.549 17.1583C19.1161 17.1583 18.8996 17.4203 18.8996 17.9443V18.0127H17.715L17.9428 13.5587H21.2463V14.6978H19.0591L18.9566 16.6002H18.9794C19.2148 16.2129 19.5755 16.0192 20.0616 16.0192C20.5172 16.0192 20.8627 16.1749 21.0982 16.4862C21.3336 16.7976 21.4513 17.2495 21.4513 17.8418V19.6416C21.4513 20.2871 21.2918 20.7846 20.9729 21.1339C20.6539 21.4756 20.1907 21.6465 19.5831 21.6465ZM24.1213 21.6465C23.5062 21.6465 23.0353 21.4718 22.7088 21.1225C22.3822 20.7732 22.219 20.2795 22.219 19.6416V15.4496C22.219 14.8117 22.3822 14.3181 22.7088 13.9688C23.0353 13.6194 23.5062 13.4448 24.1213 13.4448C24.7364 13.4448 25.2073 13.6194 25.5338 13.9688C25.8604 14.3181 26.0237 14.8117 26.0237 15.4496V19.6416C26.0237 20.2795 25.8604 20.7732 25.5338 21.1225C25.2073 21.4718 24.7364 21.6465 24.1213 21.6465ZM24.1213 20.5074C24.5542 20.5074 24.7706 20.2454 24.7706 19.7214V15.3699C24.7706 14.8459 24.5542 14.5839 24.1213 14.5839C23.6884 14.5839 23.472 14.8459 23.472 15.3699V19.7214C23.472 20.2454 23.6884 20.5074 24.1213 20.5074Z" fill="white"/>
</svg>
