<svg width="38" height="21" viewBox="0 0 38 21" fill="none" xmlns="http://www.w3.org/2000/svg">
<mask id="mask0" style="mask-type:alpha" maskUnits="userSpaceOnUse" x="0" y="0" width="21" height="21">
<ellipse cx="10.548" cy="10.1219" rx="10.1192" ry="9.92847" fill="#C4C4C4"/>
</mask>
<g mask="url(#mask0)">
<rect x="0.428711" y="0.19342" width="28.3339" height="19.8569" rx="1.16806" fill="#1366C6"/>
</g>
<mask id="mask1" style="mask-type:alpha" maskUnits="userSpaceOnUse" x="0" y="0" width="29" height="21">
<rect x="0.428711" y="0.19342" width="28.3339" height="19.8569" rx="1.16806" fill="white"/>
</mask>
<g mask="url(#mask1)">
</g>
<mask id="mask2" style="mask-type:alpha" maskUnits="userSpaceOnUse" x="17" y="0" width="21" height="21">
<ellipse cx="27.3095" cy="10.1219" rx="10.1192" ry="9.92847" fill="#C4C4C4"/>
</mask>
<g mask="url(#mask2)">
<rect x="17.1903" y="0.19342" width="28.3339" height="19.8569" rx="1.16806" fill="white"/>
<mask id="mask3" style="mask-type:alpha" maskUnits="userSpaceOnUse" x="17" y="0" width="29" height="21">
<rect x="17.1903" y="0.19342" width="28.3339" height="19.8569" rx="1.16806" fill="white"/>
</mask>
<g mask="url(#mask3)">
<path fill-rule="evenodd" clip-rule="evenodd" d="M45.5242 0.19342H17.1903V1.51722H45.5242V0.19342ZM45.5242 2.84101H17.1903V4.1648H45.5242V2.84101ZM17.1903 5.48863H45.5242V6.81243H17.1903V5.48863ZM45.5242 8.13622H17.1903V9.46002H45.5242V8.13622ZM17.1903 10.7838H45.5242V12.1076H17.1903V10.7838ZM45.5242 13.4314H17.1903V14.7552H45.5242V13.4314ZM17.1903 16.079H45.5242V17.4028H17.1903V16.079ZM45.5242 18.7266H17.1903V20.0504H45.5242V18.7266Z" fill="#D02F44"/>
<rect x="17.1903" y="0.19342" width="12.1431" height="9.26657" fill="#46467F"/>
<g filter="url(#filter0_d)">
<path fill-rule="evenodd" clip-rule="evenodd" d="M19.8888 2.17911C19.8888 2.54467 19.5868 2.84101 19.2142 2.84101C18.8416 2.84101 18.5396 2.54467 18.5396 2.17911C18.5396 1.81355 18.8416 1.51721 19.2142 1.51721C19.5868 1.51721 19.8888 1.81355 19.8888 2.17911ZM22.5873 2.17911C22.5873 2.54467 22.2852 2.84101 21.9127 2.84101C21.5401 2.84101 21.238 2.54467 21.238 2.17911C21.238 1.81356 21.5401 1.51721 21.9127 1.51721C22.2852 1.51721 22.5873 1.81356 22.5873 2.17911ZM24.6111 2.84101C24.9837 2.84101 25.2857 2.54467 25.2857 2.17911C25.2857 1.81356 24.9837 1.51721 24.6111 1.51721C24.2385 1.51721 23.9365 1.81356 23.9365 2.17911C23.9365 2.54467 24.2385 2.84101 24.6111 2.84101ZM27.9842 2.17911C27.9842 2.54467 27.6821 2.84101 27.3096 2.84101C26.937 2.84101 26.635 2.54467 26.635 2.17911C26.635 1.81356 26.937 1.51721 27.3096 1.51721C27.6821 1.51721 27.9842 1.81356 27.9842 2.17911ZM20.5634 4.1648C20.936 4.1648 21.238 3.86846 21.238 3.50291C21.238 3.13735 20.936 2.84101 20.5634 2.84101C20.1908 2.84101 19.8888 3.13735 19.8888 3.50291C19.8888 3.86846 20.1908 4.1648 20.5634 4.1648ZM23.9365 3.50291C23.9365 3.86846 23.6344 4.1648 23.2619 4.1648C22.8893 4.1648 22.5873 3.86846 22.5873 3.50291C22.5873 3.13735 22.8893 2.84101 23.2619 2.84101C23.6344 2.84101 23.9365 3.13735 23.9365 3.50291ZM25.9604 4.1648C26.3329 4.1648 26.635 3.86846 26.635 3.50291C26.635 3.13735 26.3329 2.84101 25.9604 2.84101C25.5878 2.84101 25.2857 3.13735 25.2857 3.50291C25.2857 3.86846 25.5878 4.1648 25.9604 4.1648ZM27.9842 4.8267C27.9842 5.19226 27.6821 5.4886 27.3096 5.4886C26.937 5.4886 26.635 5.19226 26.635 4.8267C26.635 4.46114 26.937 4.1648 27.3096 4.1648C27.6821 4.1648 27.9842 4.46114 27.9842 4.8267ZM24.6111 5.4886C24.9837 5.4886 25.2857 5.19226 25.2857 4.8267C25.2857 4.46114 24.9837 4.1648 24.6111 4.1648C24.2385 4.1648 23.9365 4.46114 23.9365 4.8267C23.9365 5.19226 24.2385 5.4886 24.6111 5.4886ZM22.5873 4.8267C22.5873 5.19226 22.2852 5.4886 21.9127 5.4886C21.5401 5.4886 21.238 5.19226 21.238 4.8267C21.238 4.46114 21.5401 4.1648 21.9127 4.1648C22.2852 4.1648 22.5873 4.46114 22.5873 4.8267ZM19.2142 5.4886C19.5867 5.4886 19.8888 5.19226 19.8888 4.8267C19.8888 4.46114 19.5867 4.1648 19.2142 4.1648C18.8416 4.1648 18.5396 4.46114 18.5396 4.8267C18.5396 5.19226 18.8416 5.4886 19.2142 5.4886ZM21.238 6.15053C21.238 6.51609 20.936 6.81243 20.5634 6.81243C20.1908 6.81243 19.8888 6.51609 19.8888 6.15053C19.8888 5.78497 20.1908 5.48863 20.5634 5.48863C20.936 5.48863 21.238 5.78497 21.238 6.15053ZM23.2619 6.81243C23.6344 6.81243 23.9365 6.51609 23.9365 6.15053C23.9365 5.78497 23.6344 5.48863 23.2619 5.48863C22.8893 5.48863 22.5873 5.78497 22.5873 6.15053C22.5873 6.51609 22.8893 6.81243 23.2619 6.81243ZM26.635 6.15053C26.635 6.51609 26.3329 6.81243 25.9604 6.81243C25.5878 6.81243 25.2857 6.51609 25.2857 6.15053C25.2857 5.78497 25.5878 5.48863 25.9604 5.48863C26.3329 5.48863 26.635 5.78497 26.635 6.15053ZM27.3096 8.13619C27.6821 8.13619 27.9842 7.83984 27.9842 7.47429C27.9842 7.10873 27.6821 6.81239 27.3096 6.81239C26.937 6.81239 26.635 7.10873 26.635 7.47429C26.635 7.83984 26.937 8.13619 27.3096 8.13619ZM25.2857 7.47429C25.2857 7.83984 24.9837 8.13619 24.6111 8.13619C24.2385 8.13619 23.9365 7.83984 23.9365 7.47429C23.9365 7.10873 24.2385 6.81239 24.6111 6.81239C24.9837 6.81239 25.2857 7.10873 25.2857 7.47429ZM21.9127 8.13619C22.2852 8.13619 22.5873 7.83984 22.5873 7.47429C22.5873 7.10873 22.2852 6.81239 21.9127 6.81239C21.5401 6.81239 21.238 7.10873 21.238 7.47429C21.238 7.83984 21.5401 8.13619 21.9127 8.13619ZM19.8888 7.47429C19.8888 7.83984 19.5867 8.13619 19.2142 8.13619C18.8416 8.13619 18.5396 7.83984 18.5396 7.47429C18.5396 7.10873 18.8416 6.81239 19.2142 6.81239C19.5867 6.81239 19.8888 7.10873 19.8888 7.47429Z" fill="url(#paint0_linear)"/>
</g>
</g>
</g>
<path d="M9.53892 12.6H12.8845V13.8657H7.96329V6.21866H9.53892V12.6Z" fill="white"/>
<defs>
<filter id="filter0_d" x="18.5396" y="1.51721" width="9.44463" height="7.203" filterUnits="userSpaceOnUse" color-interpolation-filters="sRGB">
<feFlood flood-opacity="0" result="BackgroundImageFix"/>
<feColorMatrix in="SourceAlpha" type="matrix" values="0 0 0 0 0 0 0 0 0 0 0 0 0 0 0 0 0 0 127 0" result="hardAlpha"/>
<feOffset dy="0.584028"/>
<feColorMatrix type="matrix" values="0 0 0 0 0 0 0 0 0 0 0 0 0 0 0 0 0 0 0.06 0"/>
<feBlend mode="normal" in2="BackgroundImageFix" result="effect1_dropShadow"/>
<feBlend mode="normal" in="SourceGraphic" in2="effect1_dropShadow" result="shape"/>
</filter>
<linearGradient id="paint0_linear" x1="18.5396" y1="1.51721" x2="18.5396" y2="8.13619" gradientUnits="userSpaceOnUse">
<stop stop-color="white"/>
<stop offset="1" stop-color="#F0F0F0"/>
</linearGradient>
</defs>
</svg>
