<svg width="35" height="36" viewBox="0 0 35 36" fill="none" xmlns="http://www.w3.org/2000/svg">
<path fill-rule="evenodd" clip-rule="evenodd" d="M17.5 35.0062C27.165 35.0062 35 27.1712 35 17.5062C35 7.84124 27.165 0.00622559 17.5 0.00622559C7.83502 0.00622559 0 7.84124 0 17.5062C0 27.1712 7.83502 35.0062 17.5 35.0062Z" fill="#2F3139"/>
<path d="M8.63833 13.0556H12.0557V14.1947H9.89137V16.3021H11.6115V17.4412H9.89137V19.8903H12.0557V21.0295H8.63833V13.0556ZM14.5992 21.1434C13.9916 21.1434 13.5284 20.9725 13.2094 20.6308C12.8905 20.2815 12.731 19.784 12.731 19.1385V13.0556H13.9841V19.2297C13.9841 19.503 14.0372 19.7005 14.1435 19.822C14.2574 19.9435 14.4169 20.0043 14.622 20.0043C14.827 20.0043 14.9827 19.9435 15.089 19.822C15.2029 19.7005 15.2599 19.503 15.2599 19.2297V13.0556H16.4674V19.1385C16.4674 19.784 16.3079 20.2815 15.9889 20.6308C15.67 20.9725 15.2067 21.1434 14.5992 21.1434ZM19.1938 21.1434C18.5863 21.1434 18.123 20.9725 17.8041 20.6308C17.4851 20.2815 17.3256 19.784 17.3256 19.1385V18.512H18.5103V19.2297C18.5103 19.7461 18.7268 20.0043 19.1596 20.0043C19.5925 20.0043 19.8089 19.7461 19.8089 19.2297V17.4412C19.8089 16.9172 19.5925 16.6552 19.1596 16.6552C18.7268 16.6552 18.5103 16.9172 18.5103 17.4412V17.5096H17.3256L17.5534 13.0556H20.8569V14.1947H18.6698L18.5673 16.097H18.5901C18.8255 15.7097 19.1862 15.5161 19.6722 15.5161C20.1279 15.5161 20.4734 15.6718 20.7088 15.9831C20.9443 16.2945 21.062 16.7463 21.062 17.3387V19.1385C21.062 19.784 20.9025 20.2815 20.5835 20.6308C20.2646 20.9725 19.8013 21.1434 19.1938 21.1434ZM23.732 21.1434C23.1169 21.1434 22.646 20.9687 22.3195 20.6194C21.9929 20.2701 21.8296 19.7764 21.8296 19.1385V14.9465C21.8296 14.3086 21.9929 13.815 22.3195 13.4657C22.646 13.1163 23.1169 12.9417 23.732 12.9417C24.3471 12.9417 24.818 13.1163 25.1445 13.4657C25.4711 13.815 25.6343 14.3086 25.6343 14.9465V19.1385C25.6343 19.7764 25.4711 20.2701 25.1445 20.6194C24.818 20.9687 24.3471 21.1434 23.732 21.1434ZM23.732 20.0043C24.1649 20.0043 24.3813 19.7423 24.3813 19.2183V14.8668C24.3813 14.3428 24.1649 14.0808 23.732 14.0808C23.2991 14.0808 23.0827 14.3428 23.0827 14.8668V19.2183C23.0827 19.7423 23.2991 20.0043 23.732 20.0043Z" fill="white"/>
</svg>
