<svg width="35" height="36" viewBox="0 0 35 36" fill="none" xmlns="http://www.w3.org/2000/svg">
<path fill-rule="evenodd" clip-rule="evenodd" d="M17.5 35.5031C27.165 35.5031 35 27.6681 35 18.0031C35 8.33813 27.165 0.503113 17.5 0.503113C7.83502 0.503113 0 8.33813 0 18.0031C0 27.6681 7.83502 35.5031 17.5 35.5031Z" fill="#2F3139"/>
<path d="M8.29829 21.6403C7.69075 21.6403 7.2275 21.4694 6.90855 21.1277C6.58959 20.7783 6.43011 20.2809 6.43011 19.6354V13.5525H7.68315V19.7265C7.68315 19.9999 7.73631 20.1974 7.84263 20.3189C7.95655 20.4404 8.11602 20.5011 8.32107 20.5011C8.52611 20.5011 8.68179 20.4404 8.78811 20.3189C8.90202 20.1974 8.95898 19.9999 8.95898 19.7265V13.5525H10.1665V19.6354C10.1665 20.2809 10.007 20.7783 9.68802 21.1277C9.36907 21.4694 8.90582 21.6403 8.29829 21.6403ZM11.0589 13.5525H12.3119V16.9129L13.9067 13.5525H15.1598L13.6675 16.48L15.1825 21.5264H13.8725L12.8132 17.9723L12.3119 18.9861V21.5264H11.0589V13.5525ZM17.5299 15.4434H16.2199V14.5549C16.5768 14.5549 16.8616 14.5245 17.0742 14.4638C17.2944 14.403 17.4691 14.3043 17.5982 14.1676C17.7273 14.0233 17.8412 13.8183 17.94 13.5525H18.7829V21.5264H17.5299V15.4434ZM22.1478 21.6403C21.5327 21.6403 21.0618 21.4656 20.7353 21.1163C20.4087 20.7669 20.2455 20.2733 20.2455 19.6354V15.4434C20.2455 14.8055 20.4087 14.3119 20.7353 13.9625C21.0618 13.6132 21.5327 13.4385 22.1478 13.4385C22.7629 13.4385 23.2338 13.6132 23.5603 13.9625C23.8869 14.3119 24.0501 14.8055 24.0501 15.4434V19.6354C24.0501 20.2733 23.8869 20.7669 23.5603 21.1163C23.2338 21.4656 22.7629 21.6403 22.1478 21.6403ZM22.1478 20.5011C22.5807 20.5011 22.7971 20.2391 22.7971 19.7151V15.3637C22.7971 14.8397 22.5807 14.5777 22.1478 14.5777C21.7149 14.5777 21.4985 14.8397 21.4985 15.3637V19.7151C21.4985 20.2391 21.7149 20.5011 22.1478 20.5011ZM26.7088 21.6403C26.0936 21.6403 25.6228 21.4656 25.2962 21.1163C24.9697 20.7669 24.8064 20.2733 24.8064 19.6354V15.4434C24.8064 14.8055 24.9697 14.3119 25.2962 13.9625C25.6228 13.6132 26.0936 13.4385 26.7088 13.4385C27.3239 13.4385 27.7947 13.6132 28.1213 13.9625C28.4478 14.3119 28.6111 14.8055 28.6111 15.4434V19.6354C28.6111 20.2733 28.4478 20.7669 28.1213 21.1163C27.7947 21.4656 27.3239 21.6403 26.7088 21.6403ZM26.7088 20.5011C27.1416 20.5011 27.3581 20.2391 27.3581 19.7151V15.3637C27.3581 14.8397 27.1416 14.5777 26.7088 14.5777C26.2759 14.5777 26.0595 14.8397 26.0595 15.3637V19.7151C26.0595 20.2391 26.2759 20.5011 26.7088 20.5011Z" fill="white"/>
</svg>
