<svg width="37" height="21" viewBox="0 0 37 21" fill="none" xmlns="http://www.w3.org/2000/svg">
<mask id="mask0" style="mask-type:alpha" maskUnits="userSpaceOnUse" x="0" y="0" width="21" height="21">
<ellipse cx="10.2067" cy="10.7271" rx="10.2067" ry="9.92847" fill="#C4C4C4"/>
</mask>
<g mask="url(#mask0)">
<rect y="0.798584" width="28.5788" height="19.8569" rx="1.16806" fill="white"/>
<mask id="mask1" style="mask-type:alpha" maskUnits="userSpaceOnUse" x="0" y="0" width="29" height="21">
<rect y="0.798584" width="28.5788" height="19.8569" rx="1.16806" fill="white"/>
</mask>
<g mask="url(#mask1)">
<path fill-rule="evenodd" clip-rule="evenodd" d="M28.5788 0.798584H0V2.12238H28.5788V0.798584ZM28.5788 3.44617H0V4.76997H28.5788V3.44617ZM0 6.09376H28.5788V7.41756H0V6.09376ZM28.5788 8.74135H0V10.0651H28.5788V8.74135ZM0 11.3889H28.5788V12.7127H0V11.3889ZM28.5788 14.0365H0V15.3603H28.5788V14.0365ZM0 16.6841H28.5788V18.0079H0V16.6841ZM28.5788 19.3317H0V20.6555H28.5788V19.3317Z" fill="#D02F44"/>
<rect y="0.798584" width="12.248" height="9.26657" fill="#46467F"/>
<g filter="url(#filter0_d)">
<path fill-rule="evenodd" clip-rule="evenodd" d="M5.44366 2.78433C5.44366 3.14989 5.13901 3.44623 4.76321 3.44623C4.38741 3.44623 4.08277 3.14989 4.08277 2.78433C4.08277 2.41878 4.38741 2.12244 4.76321 2.12244C5.13901 2.12244 5.44366 2.41878 5.44366 2.78433ZM2.72192 2.78436C2.72192 3.14991 2.41727 3.44626 2.04147 3.44626C1.66567 3.44626 1.36102 3.14991 1.36102 2.78436C1.36102 2.4188 1.66567 2.12246 2.04147 2.12246C2.41727 2.12246 2.72192 2.4188 2.72192 2.78436ZM7.48502 3.44623C7.86082 3.44623 8.16546 3.14989 8.16546 2.78433C8.16546 2.41878 7.86082 2.12244 7.48502 2.12244C7.10921 2.12244 6.80457 2.41878 6.80457 2.78433C6.80457 3.14989 7.10921 3.44623 7.48502 3.44623ZM10.8872 2.78433C10.8872 3.14989 10.5825 3.44623 10.2067 3.44623C9.83095 3.44623 9.5263 3.14989 9.5263 2.78433C9.5263 2.41878 9.83095 2.12244 10.2067 2.12244C10.5825 2.12244 10.8872 2.41878 10.8872 2.78433ZM3.40231 4.77006C3.77811 4.77006 4.08276 4.47372 4.08276 4.10816C4.08276 3.74261 3.77811 3.44627 3.40231 3.44627C3.02651 3.44627 2.72186 3.74261 2.72186 4.10816C2.72186 4.47372 3.02651 4.77006 3.40231 4.77006ZM6.80456 4.10816C6.80456 4.47372 6.49991 4.77006 6.12411 4.77006C5.74831 4.77006 5.44367 4.47372 5.44367 4.10816C5.44367 3.74261 5.74831 3.44627 6.12411 3.44627C6.49991 3.44627 6.80456 3.74261 6.80456 4.10816ZM8.84585 4.77006C9.22165 4.77006 9.52629 4.47372 9.52629 4.10816C9.52629 3.74261 9.22165 3.44627 8.84585 3.44627C8.47005 3.44627 8.1654 3.74261 8.1654 4.10816C8.1654 4.47372 8.47005 4.77006 8.84585 4.77006ZM10.8872 5.43192C10.8872 5.79748 10.5825 6.09382 10.2067 6.09382C9.83095 6.09382 9.5263 5.79748 9.5263 5.43192C9.5263 5.06637 9.83095 4.77002 10.2067 4.77002C10.5825 4.77002 10.8872 5.06637 10.8872 5.43192ZM7.48502 6.09382C7.86082 6.09382 8.16546 5.79748 8.16546 5.43192C8.16546 5.06637 7.86082 4.77002 7.48502 4.77002C7.10921 4.77002 6.80457 5.06637 6.80457 5.43192C6.80457 5.79748 7.10921 6.09382 7.48502 6.09382ZM5.44366 5.43192C5.44366 5.79748 5.13901 6.09382 4.76321 6.09382C4.38741 6.09382 4.08277 5.79748 4.08277 5.43192C4.08277 5.06637 4.38741 4.77002 4.76321 4.77002C5.13901 4.77002 5.44366 5.06637 5.44366 5.43192ZM2.04141 6.09382C2.41721 6.09382 2.72186 5.79748 2.72186 5.43192C2.72186 5.06637 2.41721 4.77002 2.04141 4.77002C1.66561 4.77002 1.36096 5.06637 1.36096 5.43192C1.36096 5.79748 1.66561 6.09382 2.04141 6.09382ZM4.08276 6.75575C4.08276 7.12131 3.77811 7.41765 3.40231 7.41765C3.02651 7.41765 2.72186 7.12131 2.72186 6.75575C2.72186 6.3902 3.02651 6.09385 3.40231 6.09385C3.77811 6.09385 4.08276 6.3902 4.08276 6.75575ZM6.12411 7.41765C6.49991 7.41765 6.80456 7.12131 6.80456 6.75575C6.80456 6.3902 6.49991 6.09385 6.12411 6.09385C5.74831 6.09385 5.44367 6.3902 5.44367 6.75575C5.44367 7.12131 5.74831 7.41765 6.12411 7.41765ZM9.52629 6.75575C9.52629 7.12131 9.22165 7.41765 8.84585 7.41765C8.47005 7.41765 8.1654 7.12131 8.1654 6.75575C8.1654 6.3902 8.47005 6.09385 8.84585 6.09385C9.22165 6.09385 9.52629 6.3902 9.52629 6.75575ZM10.2067 8.74141C10.5825 8.74141 10.8872 8.44507 10.8872 8.07951C10.8872 7.71395 10.5825 7.41761 10.2067 7.41761C9.83095 7.41761 9.5263 7.71395 9.5263 8.07951C9.5263 8.44507 9.83095 8.74141 10.2067 8.74141ZM8.16546 8.07951C8.16546 8.44507 7.86082 8.74141 7.48502 8.74141C7.10921 8.74141 6.80457 8.44507 6.80457 8.07951C6.80457 7.71395 7.10921 7.41761 7.48502 7.41761C7.86082 7.41761 8.16546 7.71395 8.16546 8.07951ZM4.76321 8.74141C5.13901 8.74141 5.44366 8.44507 5.44366 8.07951C5.44366 7.71395 5.13901 7.41761 4.76321 7.41761C4.38741 7.41761 4.08277 7.71395 4.08277 8.07951C4.08277 8.44507 4.38741 8.74141 4.76321 8.74141ZM2.72186 8.07951C2.72186 8.44507 2.41721 8.74141 2.04141 8.74141C1.66561 8.74141 1.36096 8.44507 1.36096 8.07951C1.36096 7.71395 1.66561 7.41761 2.04141 7.41761C2.41721 7.41761 2.72186 7.71395 2.72186 8.07951Z" fill="url(#paint0_linear)"/>
</g>
</g>
</g>
<mask id="mask2" style="mask-type:alpha" maskUnits="userSpaceOnUse" x="16" y="0" width="21" height="21">
<ellipse cx="26.7932" cy="10.7271" rx="10.2067" ry="9.92847" fill="#C4C4C4"/>
</mask>
<g mask="url(#mask2)">
<mask id="mask3" style="mask-type:alpha" maskUnits="userSpaceOnUse" x="15" y="-1" width="24" height="24">
<ellipse cx="26.9532" cy="10.8827" rx="11.7488" ry="11.4286" fill="#C4C4C4"/>
</mask>
<g mask="url(#mask3)">
<rect x="10.673" y="-0.377831" width="32.5606" height="22.521" rx="1.17647" fill="white" stroke="#F5F5F5" stroke-width="0.336135"/>
<mask id="mask4" style="mask-type:alpha" maskUnits="userSpaceOnUse" x="10" y="-1" width="34" height="24">
<rect x="10.673" y="-0.377831" width="32.5606" height="22.521" rx="1.17647" fill="white" stroke="white" stroke-width="0.336135"/>
</mask>
<g mask="url(#mask4)">
<rect x="34.0026" y="-0.545898" width="9.39907" height="22.8572" fill="#FF3131"/>
<path fill-rule="evenodd" clip-rule="evenodd" d="M10.5049 22.3113H19.904V-0.545898H10.5049V22.3113Z" fill="#FF3131"/>
<path fill-rule="evenodd" clip-rule="evenodd" d="M29.0425 10.3743C28.8842 10.5282 28.6222 10.3848 28.6667 10.1686L29.3031 7.07313L27.7366 7.83503L26.9534 5.54932L26.1701 7.83503L24.6036 7.07313L25.24 10.1686C25.2845 10.3848 25.0225 10.5282 24.8643 10.3743L23.9766 9.51083C23.8896 9.42622 23.7511 9.42622 23.6641 9.51083L23.0371 10.1207L21.4706 9.35884L22.2538 10.8827L21.6357 11.4839C21.5453 11.5719 21.5453 11.7172 21.6357 11.8052L23.8203 13.9303H26.1701L26.5617 16.216H27.345L27.7366 13.9303H30.0864L32.271 11.8052C32.3615 11.7172 32.3615 11.5719 32.271 11.4839L31.6529 10.8827L32.4362 9.35884L30.8697 10.1207L30.2426 9.51083C30.1557 9.42622 30.0171 9.42622 29.9301 9.51083L29.0425 10.3743Z" fill="#FF3131"/>
</g>
</g>
</g>
<defs>
<filter id="filter0_d" x="1.36096" y="2.12244" width="9.52623" height="7.203" filterUnits="userSpaceOnUse" color-interpolation-filters="sRGB">
<feFlood flood-opacity="0" result="BackgroundImageFix"/>
<feColorMatrix in="SourceAlpha" type="matrix" values="0 0 0 0 0 0 0 0 0 0 0 0 0 0 0 0 0 0 127 0" result="hardAlpha"/>
<feOffset dy="0.584028"/>
<feColorMatrix type="matrix" values="0 0 0 0 0 0 0 0 0 0 0 0 0 0 0 0 0 0 0.06 0"/>
<feBlend mode="normal" in2="BackgroundImageFix" result="effect1_dropShadow"/>
<feBlend mode="normal" in="SourceGraphic" in2="effect1_dropShadow" result="shape"/>
</filter>
<linearGradient id="paint0_linear" x1="1.36096" y1="2.12244" x2="1.36096" y2="8.74142" gradientUnits="userSpaceOnUse">
<stop stop-color="white"/>
<stop offset="1" stop-color="#F0F0F0"/>
</linearGradient>
</defs>
</svg>
