<svg width="37" height="21" viewBox="0 0 37 21" fill="none" xmlns="http://www.w3.org/2000/svg">
<mask id="mask0" style="mask-type:alpha" maskUnits="userSpaceOnUse" x="0" y="0" width="21" height="21">
<ellipse cx="10.1192" cy="10.8781" rx="10.1192" ry="9.92847" fill="#C4C4C4"/>
</mask>
<g mask="url(#mask0)">
<rect y="0.949646" width="28.3339" height="19.8569" rx="1.16806" fill="white"/>
<mask id="mask1" style="mask-type:alpha" maskUnits="userSpaceOnUse" x="0" y="0" width="29" height="21">
<rect y="0.949646" width="28.3339" height="19.8569" rx="1.16806" fill="white"/>
</mask>
<g mask="url(#mask1)">
<path fill-rule="evenodd" clip-rule="evenodd" d="M28.3339 0.949646H0V2.27344H28.3339V0.949646ZM28.3339 3.59723H0V4.92103H28.3339V3.59723ZM0 6.24482H28.3339V7.56862H0V6.24482ZM28.3339 8.89241H0V10.2162H28.3339V8.89241ZM0 11.54H28.3339V12.8638H0V11.54ZM28.3339 14.1876H0V15.5114H28.3339V14.1876ZM0 16.8352H28.3339V18.159H0V16.8352ZM28.3339 19.4828H0V20.8066H28.3339V19.4828Z" fill="#D02F44"/>
<rect y="0.949646" width="12.1431" height="9.26657" fill="#46467F"/>
<g filter="url(#filter0_d)">
<path fill-rule="evenodd" clip-rule="evenodd" d="M2.69851 2.93534C2.69851 3.30089 2.39647 3.59723 2.02389 3.59723C1.65131 3.59723 1.34928 3.30089 1.34928 2.93534C1.34928 2.56978 1.65131 2.27344 2.02389 2.27344C2.39647 2.27344 2.69851 2.56978 2.69851 2.93534ZM5.39697 2.93534C5.39697 3.30089 5.09493 3.59724 4.72235 3.59724C4.34977 3.59724 4.04773 3.30089 4.04773 2.93534C4.04773 2.56978 4.34977 2.27344 4.72235 2.27344C5.09493 2.27344 5.39697 2.56978 5.39697 2.93534ZM7.42077 3.59724C7.79335 3.59724 8.09539 3.30089 8.09539 2.93534C8.09539 2.56978 7.79335 2.27344 7.42077 2.27344C7.04819 2.27344 6.74615 2.56978 6.74615 2.93534C6.74615 3.30089 7.04819 3.59724 7.42077 3.59724ZM10.7939 2.93534C10.7939 3.30089 10.4918 3.59724 10.1193 3.59724C9.74668 3.59724 9.44464 3.30089 9.44464 2.93534C9.44464 2.56978 9.74668 2.27344 10.1193 2.27344C10.4918 2.27344 10.7939 2.56978 10.7939 2.93534ZM3.37307 4.92103C3.74565 4.92103 4.04769 4.62469 4.04769 4.25913C4.04769 3.89358 3.74565 3.59723 3.37307 3.59723C3.00049 3.59723 2.69845 3.89358 2.69845 4.25913C2.69845 4.62469 3.00049 4.92103 3.37307 4.92103ZM6.74618 4.25913C6.74618 4.62469 6.44414 4.92103 6.07156 4.92103C5.69898 4.92103 5.39694 4.62469 5.39694 4.25913C5.39694 3.89358 5.69898 3.59723 6.07156 3.59723C6.44414 3.59723 6.74618 3.89358 6.74618 4.25913ZM8.77005 4.92103C9.14263 4.92103 9.44467 4.62469 9.44467 4.25913C9.44467 3.89358 9.14263 3.59723 8.77005 3.59723C8.39747 3.59723 8.09543 3.89358 8.09543 4.25913C8.09543 4.62469 8.39747 4.92103 8.77005 4.92103ZM10.7939 5.58293C10.7939 5.94848 10.4918 6.24482 10.1193 6.24482C9.74668 6.24482 9.44464 5.94848 9.44464 5.58293C9.44464 5.21737 9.74668 4.92103 10.1193 4.92103C10.4918 4.92103 10.7939 5.21737 10.7939 5.58293ZM7.42077 6.24482C7.79335 6.24482 8.09539 5.94848 8.09539 5.58293C8.09539 5.21737 7.79335 4.92103 7.42077 4.92103C7.04819 4.92103 6.74615 5.21737 6.74615 5.58293C6.74615 5.94848 7.04819 6.24482 7.42077 6.24482ZM5.39697 5.58293C5.39697 5.94848 5.09493 6.24482 4.72235 6.24482C4.34977 6.24482 4.04773 5.94848 4.04773 5.58293C4.04773 5.21737 4.34977 4.92103 4.72235 4.92103C5.09493 4.92103 5.39697 5.21737 5.39697 5.58293ZM2.02386 6.24482C2.39644 6.24482 2.69848 5.94848 2.69848 5.58293C2.69848 5.21737 2.39644 4.92103 2.02386 4.92103C1.65128 4.92103 1.34924 5.21737 1.34924 5.58293C1.34924 5.94848 1.65128 6.24482 2.02386 6.24482ZM4.04769 6.90672C4.04769 7.27228 3.74565 7.56862 3.37307 7.56862C3.00049 7.56862 2.69845 7.27228 2.69845 6.90672C2.69845 6.54116 3.00049 6.24482 3.37307 6.24482C3.74565 6.24482 4.04769 6.54116 4.04769 6.90672ZM6.07156 7.56862C6.44414 7.56862 6.74618 7.27228 6.74618 6.90672C6.74618 6.54116 6.44414 6.24482 6.07156 6.24482C5.69898 6.24482 5.39694 6.54116 5.39694 6.90672C5.39694 7.27228 5.69898 7.56862 6.07156 7.56862ZM9.44467 6.90672C9.44467 7.27228 9.14263 7.56862 8.77005 7.56862C8.39747 7.56862 8.09543 7.27228 8.09543 6.90672C8.09543 6.54116 8.39747 6.24482 8.77005 6.24482C9.14263 6.24482 9.44467 6.54116 9.44467 6.90672ZM10.1193 8.89241C10.4918 8.89241 10.7939 8.59607 10.7939 8.23051C10.7939 7.86496 10.4918 7.56862 10.1193 7.56862C9.74668 7.56862 9.44464 7.86496 9.44464 8.23051C9.44464 8.59607 9.74668 8.89241 10.1193 8.89241ZM8.09539 8.23051C8.09539 8.59607 7.79335 8.89241 7.42077 8.89241C7.04819 8.89241 6.74615 8.59607 6.74615 8.23051C6.74615 7.86496 7.04819 7.56862 7.42077 7.56862C7.79335 7.56862 8.09539 7.86496 8.09539 8.23051ZM4.72235 8.89241C5.09493 8.89241 5.39697 8.59607 5.39697 8.23051C5.39697 7.86496 5.09493 7.56862 4.72235 7.56862C4.34977 7.56862 4.04773 7.86496 4.04773 8.23051C4.04773 8.59607 4.34977 8.89241 4.72235 8.89241ZM2.69848 8.23051C2.69848 8.59607 2.39644 8.89241 2.02386 8.89241C1.65128 8.89241 1.34924 8.59607 1.34924 8.23051C1.34924 7.86496 1.65128 7.56862 2.02386 7.56862C2.39644 7.56862 2.69848 7.86496 2.69848 8.23051Z" fill="url(#paint0_linear)"/>
</g>
</g>
</g>
<mask id="mask2" style="mask-type:alpha" maskUnits="userSpaceOnUse" x="16" y="0" width="21" height="21">
<ellipse cx="26.5647" cy="10.8791" rx="10.1202" ry="9.92942" fill="#C4C4C4"/>
</mask>
<g mask="url(#mask2)">
<rect x="12.5646" y="1.11771" width="28.0004" height="19.5227" rx="1.17647" fill="white" stroke="#F5F5F5" stroke-width="0.336135"/>
<mask id="mask3" style="mask-type:alpha" maskUnits="userSpaceOnUse" x="12" y="0" width="29" height="21">
<rect x="12.5646" y="1.11771" width="28.0004" height="19.5227" rx="1.17647" fill="white" stroke="white" stroke-width="0.336135"/>
</mask>
<g mask="url(#mask3)">
<path fill-rule="evenodd" clip-rule="evenodd" d="M26.7222 16.4118C29.7496 16.4118 32.2037 14.0039 32.2037 11.0337C32.2037 8.0634 29.7496 5.65552 26.7222 5.65552C23.6949 5.65552 21.2407 8.0634 21.2407 11.0337C21.2407 14.0039 23.6949 16.4118 26.7222 16.4118Z" fill="url(#paint1_linear)"/>
</g>
</g>
<defs>
<filter id="filter0_d" x="1.34924" y="2.27344" width="9.44463" height="7.203" filterUnits="userSpaceOnUse" color-interpolation-filters="sRGB">
<feFlood flood-opacity="0" result="BackgroundImageFix"/>
<feColorMatrix in="SourceAlpha" type="matrix" values="0 0 0 0 0 0 0 0 0 0 0 0 0 0 0 0 0 0 127 0" result="hardAlpha"/>
<feOffset dy="0.584028"/>
<feColorMatrix type="matrix" values="0 0 0 0 0 0 0 0 0 0 0 0 0 0 0 0 0 0 0.06 0"/>
<feBlend mode="normal" in2="BackgroundImageFix" result="effect1_dropShadow"/>
<feBlend mode="normal" in="SourceGraphic" in2="effect1_dropShadow" result="shape"/>
</filter>
<linearGradient id="paint0_linear" x1="1.34924" y1="2.27344" x2="1.34924" y2="8.89242" gradientUnits="userSpaceOnUse">
<stop stop-color="white"/>
<stop offset="1" stop-color="#F0F0F0"/>
</linearGradient>
<linearGradient id="paint1_linear" x1="21.2407" y1="5.65552" x2="21.2407" y2="16.4118" gradientUnits="userSpaceOnUse">
<stop stop-color="#D81441"/>
<stop offset="1" stop-color="#BB0831"/>
</linearGradient>
</defs>
</svg>
