<svg width="35" height="35" viewBox="0 0 35 35" fill="none" xmlns="http://www.w3.org/2000/svg">
<path fill-rule="evenodd" clip-rule="evenodd" d="M17.5 35C27.165 35 35 27.165 35 17.5C35 7.83502 27.165 0 17.5 0C7.83502 0 0 7.83502 0 17.5C0 27.165 7.83502 35 17.5 35Z" fill="#2F3139"/>
<path d="M23.7901 17.0379C23.7901 16.8074 23.6883 16.502 23.2542 16.2394V12.5844C22.9595 12.7023 22.5951 12.8095 22.1824 12.9006C21.057 13.1471 19.5457 13.2865 17.8951 13.2865C16.2445 13.2865 14.7332 13.1471 13.6077 12.9006C13.1951 12.8095 12.8307 12.7023 12.5359 12.5844V16.2394C12.1018 16.502 12 16.8074 12 17.0379C12 17.2683 12.1018 17.5738 12.5359 17.8364V22.6703C12.1018 22.9329 12 23.2384 12 23.4689C12 23.7529 12.1501 24.1441 12.8628 24.4228C13.8221 24.8247 15.7514 25.0766 17.8951 25.0766C20.0387 25.0766 21.968 24.8247 22.9112 24.4281C23.6401 24.1441 23.7901 23.7529 23.7901 23.4689C23.7901 23.2384 23.6883 22.9329 23.2542 22.6703V17.8364C23.6883 17.5738 23.7901 17.2683 23.7901 17.0379ZM15.2155 16.502H20.5747C20.8694 16.502 21.1106 16.7431 21.1106 17.0379C21.1106 17.3326 20.8694 17.5738 20.5747 17.5738H15.2155C14.9207 17.5738 14.6796 17.3326 14.6796 17.0379C14.6796 16.7431 14.9207 16.502 15.2155 16.502Z" fill="#FED831"/>
<path d="M12.0218 10.7792C12.0272 10.806 12.0325 10.8328 12.0432 10.8596C12.054 10.8918 12.07 10.9239 12.0861 10.9615C12.1075 10.999 12.1343 11.0418 12.1665 11.0847C12.2255 11.1705 12.3112 11.2562 12.4291 11.3366C12.4613 11.358 12.4988 11.3848 12.5363 11.4063V11.4277L12.7346 11.5081L12.8525 11.5563C12.8578 11.5563 12.8578 11.5617 12.8632 11.5617C12.9221 11.5885 12.9811 11.6099 13.0454 11.6313C13.1633 11.6742 13.2919 11.7171 13.4313 11.7492C13.4902 11.7707 13.5492 11.7868 13.6081 11.7975C13.6563 11.8136 13.7046 11.8243 13.7528 11.835C13.7689 11.8404 13.7903 11.8457 13.8118 11.8457C13.9189 11.8725 14.0261 11.8939 14.1387 11.9154C14.2512 11.9368 14.3691 11.9529 14.487 11.9743C14.6317 11.9958 14.7818 12.0172 14.9372 12.0386C15.2319 12.0762 15.5481 12.1137 15.8804 12.1351C15.9447 12.1405 16.009 12.1458 16.0787 12.1512C16.6521 12.1941 17.2631 12.2155 17.8954 12.2155C18.2974 12.2155 18.694 12.2048 19.0745 12.1887C19.128 12.1887 19.1816 12.1833 19.2352 12.1833C19.3103 12.178 19.3799 12.1726 19.4496 12.1673C19.5407 12.1619 19.6264 12.1565 19.7122 12.1512C19.7819 12.1458 19.8462 12.1405 19.9105 12.1351C19.9962 12.1297 20.0873 12.1244 20.1731 12.1137C20.2106 12.1137 20.2535 12.1083 20.291 12.103C20.366 12.0922 20.441 12.0869 20.5161 12.0815C20.5268 12.0815 20.5375 12.0815 20.5429 12.0762C20.8162 12.044 21.0734 12.0118 21.3146 11.9743C21.3253 11.969 21.3414 11.969 21.3521 11.969C21.395 11.9583 21.4325 11.9529 21.4754 11.9475C21.545 11.9315 21.6093 11.9207 21.679 11.91C21.7058 11.9047 21.7272 11.8993 21.754 11.8993C21.7594 11.8939 21.7647 11.8939 21.7701 11.8939C21.8398 11.8779 21.9148 11.8618 21.9791 11.8457C21.9845 11.8457 21.9898 11.8457 21.9898 11.8457C22.0006 11.8404 22.0113 11.8404 22.022 11.8404C22.0273 11.835 22.0327 11.835 22.0381 11.835C22.0595 11.8296 22.0756 11.8243 22.097 11.8189C22.1238 11.8136 22.156 11.8082 22.1828 11.8028C22.2149 11.7921 22.2417 11.7868 22.2739 11.7814C22.3007 11.7707 22.3328 11.76 22.3596 11.7546C22.4882 11.7171 22.6115 11.6796 22.724 11.6421C22.7776 11.6206 22.8312 11.5992 22.8795 11.5778C22.8955 11.5724 22.9116 11.567 22.9277 11.5617C22.933 11.5617 22.9384 11.5563 22.9438 11.5563L23.0402 11.5134L23.2546 11.4277V11.4009C23.2546 11.4009 23.26 11.4009 23.2653 11.3955C23.2707 11.3902 23.2814 11.3848 23.2867 11.3795C23.3671 11.3259 23.4368 11.2723 23.5011 11.2187C23.5654 11.1597 23.619 11.0954 23.6565 11.0365C23.6673 11.0258 23.6726 11.015 23.678 11.0043C23.6994 10.9668 23.7155 10.9347 23.7316 10.8971C23.7423 10.8757 23.753 10.8489 23.7584 10.8275C23.7637 10.8007 23.7691 10.7792 23.7744 10.7578C23.7852 10.7096 23.7905 10.656 23.7905 10.6077C23.7905 10.581 23.7905 10.5542 23.7852 10.5274C23.7852 10.4952 23.7798 10.4684 23.7691 10.4363C23.7637 10.4095 23.7584 10.3827 23.7476 10.3559C23.7369 10.3237 23.7208 10.2916 23.7048 10.254C23.6833 10.2165 23.6565 10.1737 23.6244 10.1308C23.5654 10.045 23.4797 9.95929 23.3618 9.8789C23.3296 9.85747 23.2921 9.83067 23.2546 9.80923V9.7878L23.0563 9.70741L22.9384 9.65918C22.933 9.65918 22.933 9.65382 22.9277 9.65382C22.8687 9.62702 22.8098 9.60558 22.7455 9.58415C22.6276 9.54127 22.499 9.4984 22.3596 9.46625C22.1667 9.4073 21.9577 9.35906 21.7326 9.31619C21.5557 9.28404 21.3682 9.25188 21.1752 9.21973C20.8269 9.16613 20.4464 9.12326 20.0445 9.09111C19.9105 9.07503 19.7765 9.06967 19.6425 9.05895C19.3638 9.03751 19.0798 9.0268 18.7851 9.01608C18.6618 9.01072 18.5332 9.00536 18.4099 9.00536C18.2438 9 18.0669 9 17.8954 9C17.7615 9 17.6275 9 17.4989 9.00536C17.3917 9.00536 17.2845 9.00536 17.1773 9.01066C16.4538 9.02674 15.7732 9.07503 15.1569 9.15C15.0819 9.16072 15.0069 9.16608 14.9372 9.1768C14.905 9.18216 14.8729 9.18216 14.8461 9.18752C14.7282 9.20359 14.6103 9.21967 14.5031 9.23575C14.4441 9.24652 14.3852 9.25724 14.3262 9.2626C14.3262 9.2626 14.3209 9.26796 14.3155 9.26796C14.2459 9.28404 14.1815 9.29475 14.1119 9.30547C14.0851 9.31083 14.0583 9.31619 14.0315 9.32155C13.935 9.34299 13.8439 9.35906 13.7528 9.3805C13.7314 9.38586 13.7153 9.39122 13.6939 9.39658C13.6028 9.41801 13.517 9.43945 13.4313 9.46089C13.3026 9.4984 13.1794 9.53592 13.0668 9.57343C13.0079 9.59487 12.9597 9.6163 12.9114 9.63774C12.8953 9.6431 12.8793 9.64846 12.8632 9.65382C12.8578 9.65382 12.8525 9.65918 12.8471 9.65918L12.7506 9.70205L12.5363 9.7878V9.81459C12.5363 9.81459 12.5309 9.81459 12.5256 9.81995C12.5202 9.82531 12.5095 9.83067 12.5041 9.83603C12.4505 9.86818 12.4023 9.9057 12.3541 9.93785C12.3487 9.94321 12.3487 9.94321 12.3487 9.94321C12.3058 9.98073 12.263 10.0182 12.2255 10.0611C12.1879 10.0986 12.1558 10.1415 12.1343 10.179C12.1236 10.1897 12.1183 10.2005 12.1129 10.2112C12.0915 10.2487 12.0754 10.2808 12.0593 10.3184C12.0486 10.3398 12.0379 10.3666 12.0325 10.388C12.0272 10.4148 12.0218 10.4363 12.0164 10.4577C12.0057 10.5059 12.0004 10.5595 12.0004 10.6077C12.0004 10.6345 12.0004 10.6613 12.0057 10.6881C12.0057 10.7203 12.0111 10.7471 12.0218 10.7792Z" fill="#FED831"/>
</svg>
