<svg width="35" height="35" viewBox="0 0 35 35" fill="none" xmlns="http://www.w3.org/2000/svg">
<path fill-rule="evenodd" clip-rule="evenodd" d="M17.5 35C27.165 35 35 27.165 35 17.5C35 7.83502 27.165 0 17.5 0C7.83502 0 0 7.83502 0 17.5C0 27.165 7.83502 35 17.5 35Z" fill="#2F3139"/>
<path d="M8.53732 21.1372C7.92979 21.1372 7.46654 20.9663 7.14758 20.6246C6.82863 20.2752 6.66915 19.7778 6.66915 19.1323V13.0493H7.92219V19.2234C7.92219 19.4968 7.97535 19.6943 8.08167 19.8158C8.19558 19.9373 8.35506 19.998 8.56011 19.998C8.76515 19.998 8.92083 19.9373 9.02715 19.8158C9.14106 19.6943 9.19802 19.4968 9.19802 19.2234V13.0493H10.4055V19.1323C10.4055 19.7778 10.246 20.2752 9.92706 20.6246C9.60811 20.9663 9.14486 21.1372 8.53732 21.1372ZM12.9269 21.1372C12.3194 21.1372 11.8599 20.9663 11.5485 20.6246C11.2372 20.2752 11.0815 19.7778 11.0815 19.1323V18.6766H12.2662V19.2234C12.2662 19.7398 12.4826 19.998 12.9155 19.998C13.1281 19.998 13.2876 19.9373 13.3939 19.8158C13.5078 19.6867 13.5648 19.4816 13.5648 19.2006C13.5648 18.8665 13.4889 18.5741 13.337 18.3235C13.1851 18.0653 12.9041 17.7577 12.494 17.4008C11.9776 16.9452 11.6169 16.5351 11.4118 16.1706C11.2068 15.7984 11.1043 15.3808 11.1043 14.9175C11.1043 14.2872 11.2638 13.8012 11.5827 13.4594C11.9017 13.1101 12.3649 12.9354 12.9725 12.9354C13.5724 12.9354 14.0243 13.1101 14.328 13.4594C14.6394 13.8012 14.7951 14.2948 14.7951 14.9403V15.2706H13.6104V14.8606C13.6104 14.5872 13.5572 14.3897 13.4509 14.2682C13.3446 14.1391 13.1889 14.0746 12.9838 14.0746C12.5662 14.0746 12.3573 14.329 12.3573 14.8378C12.3573 15.1264 12.4333 15.3959 12.5852 15.6466C12.7446 15.8972 13.0294 16.2009 13.4395 16.5579C13.9635 17.0135 14.3242 17.4274 14.5217 17.7995C14.7191 18.1716 14.8178 18.6083 14.8178 19.1095C14.8178 19.7626 14.6546 20.2638 14.328 20.6132C14.0091 20.9625 13.542 21.1372 12.9269 21.1372ZM17.2906 14.9403H15.9806V14.0518C16.3375 14.0518 16.6223 14.0214 16.8349 13.9606C17.0551 13.8999 17.2298 13.8012 17.3589 13.6645C17.488 13.5202 17.6019 13.3151 17.7006 13.0493H18.5436V21.0233H17.2906V14.9403ZM21.9085 21.1372C21.2934 21.1372 20.8225 20.9625 20.496 20.6132C20.1694 20.2638 20.0061 19.7702 20.0061 19.1323V14.9403C20.0061 14.3024 20.1694 13.8088 20.496 13.4594C20.8225 13.1101 21.2934 12.9354 21.9085 12.9354C22.5236 12.9354 22.9945 13.1101 23.321 13.4594C23.6476 13.8088 23.8108 14.3024 23.8108 14.9403V19.1323C23.8108 19.7702 23.6476 20.2638 23.321 20.6132C22.9945 20.9625 22.5236 21.1372 21.9085 21.1372ZM21.9085 19.998C22.3414 19.998 22.5578 19.736 22.5578 19.212V14.8606C22.5578 14.3366 22.3414 14.0746 21.9085 14.0746C21.4756 14.0746 21.2592 14.3366 21.2592 14.8606V19.212C21.2592 19.736 21.4756 19.998 21.9085 19.998ZM26.4695 21.1372C25.8543 21.1372 25.3835 20.9625 25.0569 20.6132C24.7304 20.2638 24.5671 19.7702 24.5671 19.1323V14.9403C24.5671 14.3024 24.7304 13.8088 25.0569 13.4594C25.3835 13.1101 25.8543 12.9354 26.4695 12.9354C27.0846 12.9354 27.5554 13.1101 27.882 13.4594C28.2085 13.8088 28.3718 14.3024 28.3718 14.9403V19.1323C28.3718 19.7702 28.2085 20.2638 27.882 20.6132C27.5554 20.9625 27.0846 21.1372 26.4695 21.1372ZM26.4695 19.998C26.9023 19.998 27.1188 19.736 27.1188 19.212V14.8606C27.1188 14.3366 26.9023 14.0746 26.4695 14.0746C26.0366 14.0746 25.8202 14.3366 25.8202 14.8606V19.212C25.8202 19.736 26.0366 19.998 26.4695 19.998Z" fill="white"/>
</svg>
