<svg width="38" height="20" viewBox="0 0 38 20" fill="none" xmlns="http://www.w3.org/2000/svg">
<mask id="mask0" style="mask-type:alpha" maskUnits="userSpaceOnUse" x="0" y="0" width="21" height="20">
<ellipse cx="10.548" cy="10.0715" rx="10.1192" ry="9.92847" fill="#C4C4C4"/>
</mask>
<g mask="url(#mask0)">
<rect x="0.428711" y="0.143066" width="28.3339" height="19.8569" rx="1.16806" fill="#763BE7"/>
</g>
<mask id="mask1" style="mask-type:alpha" maskUnits="userSpaceOnUse" x="0" y="0" width="29" height="20">
<rect x="0.428711" y="0.143066" width="28.3339" height="19.8569" rx="1.16806" fill="white"/>
</mask>
<g mask="url(#mask1)">
</g>
<mask id="mask2" style="mask-type:alpha" maskUnits="userSpaceOnUse" x="17" y="0" width="21" height="20">
<ellipse cx="27.3095" cy="10.0715" rx="10.1192" ry="9.92847" fill="#C4C4C4"/>
</mask>
<g mask="url(#mask2)">
<rect x="17.1903" y="0.143066" width="28.3339" height="19.8569" rx="1.16806" fill="white"/>
<mask id="mask3" style="mask-type:alpha" maskUnits="userSpaceOnUse" x="17" y="0" width="29" height="20">
<rect x="17.1903" y="0.143066" width="28.3339" height="19.8569" rx="1.16806" fill="white"/>
</mask>
<g mask="url(#mask3)">
<path fill-rule="evenodd" clip-rule="evenodd" d="M45.5242 0.143066H17.1903V1.46686H45.5242V0.143066ZM45.5242 2.79065H17.1903V4.11445H45.5242V2.79065ZM17.1903 5.43824H45.5242V6.76204H17.1903V5.43824ZM45.5242 8.08583H17.1903V9.40963H45.5242V8.08583ZM17.1903 10.7334H45.5242V12.0572H17.1903V10.7334ZM45.5242 13.381H17.1903V14.7048H45.5242V13.381ZM17.1903 16.0286H45.5242V17.3524H17.1903V16.0286ZM45.5242 18.6762H17.1903V20H45.5242V18.6762Z" fill="#D02F44"/>
<rect x="17.1903" y="0.143066" width="12.1431" height="9.26657" fill="#46467F"/>
<g filter="url(#filter0_d)">
<path fill-rule="evenodd" clip-rule="evenodd" d="M22.5873 2.12882C22.5873 2.49437 22.2852 2.79072 21.9127 2.79072C21.5401 2.79072 21.238 2.49437 21.238 2.12882C21.238 1.76326 21.5401 1.46692 21.9127 1.46692C22.2852 1.46692 22.5873 1.76326 22.5873 2.12882ZM19.8888 2.12884C19.8888 2.4944 19.5868 2.79074 19.2142 2.79074C18.8416 2.79074 18.5396 2.4944 18.5396 2.12884C18.5396 1.76328 18.8416 1.46694 19.2142 1.46694C19.5868 1.46694 19.8888 1.76328 19.8888 2.12884ZM24.6111 2.79072C24.9837 2.79072 25.2857 2.49437 25.2857 2.12882C25.2857 1.76326 24.9837 1.46692 24.6111 1.46692C24.2385 1.46692 23.9365 1.76326 23.9365 2.12882C23.9365 2.49437 24.2385 2.79072 24.6111 2.79072ZM27.9842 2.12882C27.9842 2.49437 27.6821 2.79072 27.3096 2.79072C26.937 2.79072 26.635 2.49437 26.635 2.12882C26.635 1.76326 26.937 1.46692 27.3096 1.46692C27.6821 1.46692 27.9842 1.76326 27.9842 2.12882ZM20.5634 4.11454C20.936 4.11454 21.238 3.8182 21.238 3.45265C21.238 3.08709 20.936 2.79075 20.5634 2.79075C20.1908 2.79075 19.8888 3.08709 19.8888 3.45265C19.8888 3.8182 20.1908 4.11454 20.5634 4.11454ZM23.9365 3.45265C23.9365 3.8182 23.6344 4.11454 23.2619 4.11454C22.8893 4.11454 22.5873 3.8182 22.5873 3.45265C22.5873 3.08709 22.8893 2.79075 23.2619 2.79075C23.6344 2.79075 23.9365 3.08709 23.9365 3.45265ZM25.9604 4.11454C26.3329 4.11454 26.635 3.8182 26.635 3.45265C26.635 3.08709 26.3329 2.79075 25.9604 2.79075C25.5878 2.79075 25.2857 3.08709 25.2857 3.45265C25.2857 3.8182 25.5878 4.11454 25.9604 4.11454ZM27.9842 4.77641C27.9842 5.14196 27.6821 5.4383 27.3096 5.4383C26.937 5.4383 26.635 5.14196 26.635 4.77641C26.635 4.41085 26.937 4.11451 27.3096 4.11451C27.6821 4.11451 27.9842 4.41085 27.9842 4.77641ZM24.6111 5.4383C24.9837 5.4383 25.2857 5.14196 25.2857 4.77641C25.2857 4.41085 24.9837 4.11451 24.6111 4.11451C24.2385 4.11451 23.9365 4.41085 23.9365 4.77641C23.9365 5.14196 24.2385 5.4383 24.6111 5.4383ZM22.5873 4.77641C22.5873 5.14196 22.2852 5.4383 21.9127 5.4383C21.5401 5.4383 21.238 5.14196 21.238 4.77641C21.238 4.41085 21.5401 4.11451 21.9127 4.11451C22.2852 4.11451 22.5873 4.41085 22.5873 4.77641ZM19.2142 5.4383C19.5867 5.4383 19.8888 5.14196 19.8888 4.77641C19.8888 4.41085 19.5867 4.11451 19.2142 4.11451C18.8416 4.11451 18.5396 4.41085 18.5396 4.77641C18.5396 5.14196 18.8416 5.4383 19.2142 5.4383ZM21.238 6.10023C21.238 6.46579 20.936 6.76213 20.5634 6.76213C20.1908 6.76213 19.8888 6.46579 19.8888 6.10023C19.8888 5.73468 20.1908 5.43834 20.5634 5.43834C20.936 5.43834 21.238 5.73468 21.238 6.10023ZM23.2619 6.76213C23.6344 6.76213 23.9365 6.46579 23.9365 6.10023C23.9365 5.73468 23.6344 5.43834 23.2619 5.43834C22.8893 5.43834 22.5873 5.73468 22.5873 6.10023C22.5873 6.46579 22.8893 6.76213 23.2619 6.76213ZM26.635 6.10023C26.635 6.46579 26.3329 6.76213 25.9604 6.76213C25.5878 6.76213 25.2857 6.46579 25.2857 6.10023C25.2857 5.73468 25.5878 5.43834 25.9604 5.43834C26.3329 5.43834 26.635 5.73468 26.635 6.10023ZM27.3096 8.08589C27.6821 8.08589 27.9842 7.78955 27.9842 7.42399C27.9842 7.05844 27.6821 6.76209 27.3096 6.76209C26.937 6.76209 26.635 7.05844 26.635 7.42399C26.635 7.78955 26.937 8.08589 27.3096 8.08589ZM25.2857 7.42399C25.2857 7.78955 24.9837 8.08589 24.6111 8.08589C24.2385 8.08589 23.9365 7.78955 23.9365 7.42399C23.9365 7.05844 24.2385 6.76209 24.6111 6.76209C24.9837 6.76209 25.2857 7.05844 25.2857 7.42399ZM21.9127 8.08589C22.2852 8.08589 22.5873 7.78955 22.5873 7.42399C22.5873 7.05844 22.2852 6.76209 21.9127 6.76209C21.5401 6.76209 21.238 7.05844 21.238 7.42399C21.238 7.78955 21.5401 8.08589 21.9127 8.08589ZM19.8888 7.42399C19.8888 7.78955 19.5867 8.08589 19.2142 8.08589C18.8416 8.08589 18.5396 7.78955 18.5396 7.42399C18.5396 7.05844 18.8416 6.76209 19.2142 6.76209C19.5867 6.76209 19.8888 7.05844 19.8888 7.42399Z" fill="url(#paint0_linear)"/>
</g>
</g>
</g>
<path d="M9.53892 11.1211V13.8154H7.96329V6.16837H10.9465C11.5207 6.16837 12.0249 6.27341 12.4591 6.48349C12.8968 6.69358 13.2329 6.99295 13.4675 7.3816C13.7021 7.76676 13.8194 8.20618 13.8194 8.69988C13.8194 9.44918 13.562 10.0409 13.0473 10.4751C12.5361 10.9058 11.8271 11.1211 10.9202 11.1211H9.53892ZM9.53892 9.84484H10.9465C11.3632 9.84484 11.68 9.7468 11.8971 9.55072C12.1177 9.35464 12.228 9.07453 12.228 8.71038C12.228 8.33573 12.1177 8.03286 11.8971 7.80177C11.6765 7.57068 11.3719 7.45163 10.9833 7.44463H9.53892V9.84484Z" fill="white"/>
<defs>
<filter id="filter0_d" x="18.5396" y="1.46692" width="9.44463" height="7.203" filterUnits="userSpaceOnUse" color-interpolation-filters="sRGB">
<feFlood flood-opacity="0" result="BackgroundImageFix"/>
<feColorMatrix in="SourceAlpha" type="matrix" values="0 0 0 0 0 0 0 0 0 0 0 0 0 0 0 0 0 0 127 0" result="hardAlpha"/>
<feOffset dy="0.584028"/>
<feColorMatrix type="matrix" values="0 0 0 0 0 0 0 0 0 0 0 0 0 0 0 0 0 0 0.06 0"/>
<feBlend mode="normal" in2="BackgroundImageFix" result="effect1_dropShadow"/>
<feBlend mode="normal" in="SourceGraphic" in2="effect1_dropShadow" result="shape"/>
</filter>
<linearGradient id="paint0_linear" x1="18.5396" y1="1.46692" x2="18.5396" y2="8.0859" gradientUnits="userSpaceOnUse">
<stop stop-color="white"/>
<stop offset="1" stop-color="#F0F0F0"/>
</linearGradient>
</defs>
</svg>
